<?xml version="1.0" encoding="UTF-8"?>
<svg version="1.1" xmlns="http://www.w3.org/2000/svg" width="1500" height="1500">
<path d="M0 0 C0.82175028 -0.00282738 1.64350056 -0.00565475 2.49015236 -0.00856781 C6.85761439 -0.02344127 11.22504453 -0.03273961 15.5925293 -0.03710938 C19.11054113 -0.04144774 22.62830129 -0.05517456 26.14624023 -0.078125 C56.93756207 -0.27466198 87.47792172 1.11464804 117.98828125 5.515625 C118.73002594 5.61950531 119.47177063 5.72338562 120.23599243 5.83041382 C191.60384632 15.83457165 260.39249849 36.39011228 325.64160156 66.99072266 C327.99804516 68.0909576 330.36173514 69.17264468 332.73046875 70.24609375 C344.55541966 75.64012453 355.89845634 81.86264212 367.23828125 88.203125 C368.11000977 88.68797363 368.98173828 89.17282227 369.87988281 89.67236328 C389.93873615 100.85363948 409.52873375 112.87609228 428.23828125 126.203125 C428.96740723 126.72116699 429.6965332 127.23920898 430.44775391 127.77294922 C443.68654171 137.20044364 456.60697911 146.97298093 469.23828125 157.203125 C470.51058594 158.22986328 470.51058594 158.22986328 471.80859375 159.27734375 C483.39796546 168.68737297 494.64902573 178.42571048 505.54785156 188.62597656 C507.29993468 190.26064683 509.06117276 191.88497651 510.82421875 193.5078125 C517.58274091 199.74507752 524.22238856 206.0873139 530.73828125 212.578125 C531.38450439 213.21975586 532.03072754 213.86138672 532.6965332 214.52246094 C536.47251135 218.31066225 540.05034907 222.21793996 543.54589844 226.265625 C546.1575317 229.25551559 548.88963339 232.12818317 551.61328125 235.015625 C556.26341535 239.98497053 560.68795063 245.06208672 564.94140625 250.37890625 C567.08561096 253.01540285 569.28998001 255.58020145 571.5246582 258.1394043 C577.95554672 265.51882572 583.88160426 273.18698926 589.66992188 281.07714844 C591.25594566 283.22706984 592.8618415 285.36079283 594.47265625 287.4921875 C616.07753021 316.21473887 635.12065565 346.86019047 651.87597656 378.63867188 C653.0650868 380.87709731 654.27867289 383.09809535 655.51171875 385.3125 C668.87338082 409.49338395 679.40732878 435.42119566 689.23828125 461.203125 C689.66415527 462.31300781 690.0900293 463.42289062 690.52880859 464.56640625 C719.66459203 541.17136668 734.04023099 624.06592851 733.62500381 705.92106247 C733.61304233 708.44095741 733.60610383 710.96082749 733.60018921 713.48074341 C733.53223649 738.48556982 733.05916549 763.33460656 730.23828125 788.203125 C730.06491069 789.78206043 729.89157153 791.36099931 729.71826172 792.93994141 C720.29987183 877.31113028 695.07572193 958.34628141 657.23828125 1034.203125 C656.70090332 1035.28190918 656.16352539 1036.36069336 655.60986328 1037.47216797 C644.23057457 1060.17120464 631.40186307 1082.12559096 617.23828125 1103.203125 C616.48732178 1104.32243408 616.48732178 1104.32243408 615.72119141 1105.46435547 C604.48851609 1122.152803 592.86814897 1138.53932192 580.23828125 1154.203125 C579.4803125 1155.14414063 578.72234375 1156.08515625 577.94140625 1157.0546875 C569.72200441 1167.16863232 561.3332127 1177.1093726 552.515625 1186.70703125 C550.49032565 1188.92687051 548.51230354 1191.17706016 546.55078125 1193.453125 C543.8193127 1196.60039087 540.93244719 1199.52995538 537.9609375 1202.44921875 C536.27865052 1204.1620234 534.72724366 1205.93419945 533.17578125 1207.765625 C525.78727457 1216.32425717 517.58555629 1224.39301302 508.9609375 1231.69921875 C507.13397618 1233.29418498 505.43768838 1234.97330342 503.73828125 1236.703125 C500.07531499 1240.41525859 496.19593524 1243.80993382 492.23828125 1247.203125 C491.19496745 1248.11028039 490.15202746 1249.01786581 489.109375 1249.92578125 C482.15163817 1255.96302 475.06588375 1261.78203543 467.7890625 1267.4296875 C465.38932276 1269.29416685 463.01430565 1271.18464188 460.65625 1273.1015625 C424.31630782 1302.63751336 383.85703526 1326.91955027 342.23828125 1348.203125 C341.51866211 1348.5738916 340.79904297 1348.9446582 340.05761719 1349.32666016 C264.20532722 1388.37322301 180.54481772 1411.5973024 44.4765625 1423.40625 C43.65481222 1423.40907738 42.83306194 1423.41190475 41.98641014 1423.41481781 C37.61894811 1423.42969127 33.25151797 1423.43898961 28.8840332 1423.44335938 C25.36602137 1423.44769774 21.84826121 1423.46142456 18.33032227 1423.484375 C-12.46099957 1423.68091198 -43.00135922 1422.29160196 -73.51171875 1417.890625 C-74.25346344 1417.78674469 -74.99520813 1417.68286438 -75.75942993 1417.57583618 C-152.80530106 1406.77574885 -228.14976806 1384.04405833 -297.42236328 1348.39941406 C-300.1931396 1346.98250695 -302.97595874 1345.59034241 -305.7578125 1344.1953125 C-322.63450272 1335.66307673 -338.72887103 1326.208999 -354.76171875 1316.203125 C-356.55696672 1315.0945257 -358.35251332 1313.98640977 -360.1484375 1312.87890625 C-370.63855634 1306.37369731 -380.77249009 1299.45082332 -390.76171875 1292.203125 C-391.53016113 1291.64866699 -392.29860352 1291.09420898 -393.09033203 1290.52294922 C-403.67670025 1282.87304047 -413.97880293 1274.95737998 -424.03808594 1266.62695312 C-426.4740194 1264.61472027 -428.9321435 1262.6300475 -431.38671875 1260.640625 C-441.88499584 1252.02826595 -452.09133074 1243.1313556 -462.00195312 1233.84960938 C-463.91257745 1232.06197751 -465.82919266 1230.28089852 -467.74609375 1228.5 C-487.72709517 1209.90082691 -487.72709517 1209.90082691 -496.15234375 1200.03125 C-497.78758309 1198.17374512 -499.49653668 1196.43706491 -501.26171875 1194.703125 C-504.97371332 1191.04029592 -508.37018516 1187.16206345 -511.76171875 1183.203125 C-512.62539063 1182.20539063 -513.4890625 1181.20765625 -514.37890625 1180.1796875 C-526.70291899 1165.91758226 -538.63011464 1151.41857618 -549.76171875 1136.203125 C-550.29684082 1135.47448242 -550.83196289 1134.74583984 -551.38330078 1133.99511719 C-558.78280942 1123.9046807 -565.95041537 1113.69943096 -572.76171875 1103.203125 C-573.52838867 1102.02919189 -573.52838867 1102.02919189 -574.31054688 1100.83154297 C-589.99049653 1076.77013262 -603.87671342 1051.84606461 -616.76171875 1026.203125 C-617.28330566 1025.17461426 -617.80489258 1024.14610352 -618.34228516 1023.08642578 C-652.50996398 955.42886599 -673.17983274 881.13289232 -683.57421875 806.265625 C-683.75702393 804.96866699 -683.9398291 803.67170898 -684.12817383 802.33544922 C-684.75996214 797.63359697 -685.27318981 792.92181795 -685.76171875 788.203125 C-685.88699951 787.00032898 -686.01228027 785.79753296 -686.14135742 784.55828857 C-688.4607712 761.8324181 -689.24313938 739.2674445 -689.15283203 716.43066406 C-689.13574159 712.07524624 -689.1459336 707.7203789 -689.16315365 703.36497974 C-689.26167566 673.91273823 -687.63280055 644.69163249 -683.44921875 615.515625 C-683.3450061 614.77005341 -683.24079346 614.02448181 -683.13342285 613.25631714 C-677.56551459 573.49554211 -668.98978119 534.45993665 -656.76171875 496.203125 C-656.38466797 495.00381348 -656.00761719 493.80450195 -655.61914062 492.56884766 C-646.46896476 463.56619632 -635.18472879 435.43615793 -622.08740234 407.99414062 C-620.85060703 405.39026512 -619.63892474 402.77659431 -618.4375 400.15625 C-610.25166615 382.38473363 -600.56898209 365.45489533 -590.69921875 348.578125 C-590.32587402 347.93885071 -589.9525293 347.29957642 -589.56787109 346.64093018 C-588.49890476 344.81344335 -587.42605848 342.9883025 -586.3515625 341.1640625 C-585.73144287 340.11009277 -585.11132324 339.05612305 -584.47241211 337.97021484 C-583.00090708 335.59001818 -581.58712474 333.3241214 -579.76171875 331.203125 C-579.10171875 331.203125 -578.44171875 331.203125 -577.76171875 331.203125 C-577.52324219 330.51863281 -577.28476562 329.83414062 -577.0390625 329.12890625 C-575.50260354 325.60961646 -573.48038091 322.54866551 -571.32421875 319.390625 C-570.88899902 318.74480469 -570.4537793 318.09898437 -570.00537109 317.43359375 C-567.62469724 313.91043359 -565.21553846 310.40731614 -562.796875 306.91015625 C-562.06778931 305.85501831 -562.06778931 305.85501831 -561.32397461 304.77856445 C-560.39177492 303.43244087 -559.45656761 302.08839322 -558.51782227 300.74682617 C-556.45797724 297.78078745 -554.512193 294.82443999 -552.76953125 291.66015625 C-550.61601929 287.95226115 -548.19702695 284.71880822 -545.51171875 281.390625 C-545.02719238 280.7824292 -544.54266602 280.1742334 -544.04345703 279.54760742 C-543.06981152 278.32660767 -542.09410813 277.10724568 -541.11621094 275.88964844 C-539.93355835 274.41708822 -538.75724941 272.93943776 -537.58203125 271.4609375 C-535.65130244 269.03395711 -533.70954731 266.61639853 -531.76171875 264.203125 C-530.73691406 262.93275391 -530.73691406 262.93275391 -529.69140625 261.63671875 C-517.05724684 246.08175904 -504.08463619 230.97567975 -489.34375 217.37597656 C-480.61211504 209.28515761 -472.27023275 200.7979707 -463.88964844 192.34692383 C-461.8519328 190.29401182 -459.80757812 188.24791617 -457.76171875 186.203125 C-456.98699219 185.42195312 -456.21226562 184.64078125 -455.4140625 183.8359375 C-446.75792816 175.24354494 -437.78143282 167.23385169 -428.109375 159.8046875 C-425.01666486 157.42459556 -422.04221263 154.92518445 -419.07421875 152.390625 C-377.37125715 117.42642011 -377.37125715 117.42642011 -354.85717773 108.16577148 C-349.9545746 105.91353285 -345.35035863 103.05143393 -340.69921875 100.328125 C-339.63638672 99.71582031 -338.57355469 99.10351562 -337.47851562 98.47265625 C-336.44662109 97.87066406 -335.41472656 97.26867187 -334.3515625 96.6484375 C-333.42206787 96.10719238 -332.49257324 95.56594727 -331.53491211 95.00830078 C-328.64478583 93.20804484 -328.64478583 93.20804484 -325.81396484 90.71777344 C-322.76808049 88.20836623 -319.8074371 86.38857655 -316.3359375 84.5234375 C-315.72429245 84.19396622 -315.1126474 83.86449493 -314.48246765 83.52503967 C-312.47627409 82.44990751 -310.46368068 81.38767657 -308.44921875 80.328125 C-307.74976135 79.95829498 -307.05030396 79.58846497 -306.32965088 79.20742798 C-230.28546219 39.10216656 -146.75297312 14.2970546 0 0 Z " fill="#FDFEFE" transform="translate(727.76171875,38.796875)"/>
<path d="M0 0 C-0.15646425 2.24657509 -0.31406691 4.49307091 -0.47215271 6.73953247 C-0.60361773 8.61607104 -0.60361773 8.61607104 -0.73773861 10.53051949 C-1.2280564 17.01697948 -2.13692493 23.43859364 -3.0625 29.875 C-3.16914978 30.61821503 -3.27579956 31.36143005 -3.38568115 32.12716675 C-10.07261284 78.19033767 -21.46251061 123.14625934 -37 167 C-37.4316748 168.22734863 -37.86334961 169.45469727 -38.30810547 170.71923828 C-48.06226166 198.29063096 -59.95698095 224.85123734 -73 251 C-73.53737793 252.07878418 -74.07475586 253.15756836 -74.62841797 254.26904297 C-86.00770668 276.96807964 -98.83641818 298.92246596 -113 320 C-113.75095947 321.11930908 -113.75095947 321.11930908 -114.51708984 322.26123047 C-125.74976516 338.949678 -137.37013228 355.33619692 -150 371 C-150.75796875 371.94101563 -151.5159375 372.88203125 -152.296875 373.8515625 C-160.51627684 383.96550732 -168.90506855 393.9062476 -177.72265625 403.50390625 C-179.7479556 405.72374551 -181.72597771 407.97393516 -183.6875 410.25 C-186.41896855 413.39726587 -189.30583406 416.32683038 -192.27734375 419.24609375 C-193.95963073 420.9588984 -195.51103759 422.73107445 -197.0625 424.5625 C-204.45100668 433.12113217 -212.65272496 441.18988802 -221.27734375 448.49609375 C-223.10430507 450.09105998 -224.80059287 451.77017842 -226.5 453.5 C-230.16296626 457.21213359 -234.04234601 460.60680882 -238 464 C-239.0433138 464.90715539 -240.08625379 465.81474081 -241.12890625 466.72265625 C-248.08664308 472.759895 -255.1723975 478.57891043 -262.44921875 484.2265625 C-264.84895849 486.09104185 -267.2239756 487.98151688 -269.58203125 489.8984375 C-305.92197343 519.43438836 -346.38124599 543.71642527 -388 565 C-388.71961914 565.3707666 -389.43923828 565.7415332 -390.18066406 566.12353516 C-466.03295403 605.17009801 -549.69346353 628.3941774 -685.76171875 640.203125 C-686.58346903 640.20595238 -687.40521931 640.20877975 -688.25187111 640.21169281 C-692.61933314 640.22656627 -696.98676328 640.23586461 -701.35424805 640.24023438 C-704.87225988 640.24457274 -708.39002004 640.25829956 -711.90795898 640.28125 C-742.69928082 640.47778698 -773.23964047 639.08847696 -803.75 634.6875 C-804.86261703 634.53167953 -804.86261703 634.53167953 -805.99771118 634.37271118 C-883.04358231 623.57262385 -958.38804931 600.84093333 -1027.66064453 565.19628906 C-1030.43142085 563.77938195 -1033.21423999 562.38721741 -1035.99609375 560.9921875 C-1052.87278397 552.45995173 -1068.96715228 543.005874 -1085 533 C-1086.79524797 531.8914007 -1088.59079457 530.78328477 -1090.38671875 529.67578125 C-1100.87683759 523.17057231 -1111.01077134 516.24769832 -1121 509 C-1122.15266357 508.16831299 -1122.15266357 508.16831299 -1123.32861328 507.31982422 C-1133.9149815 499.66991547 -1144.21708418 491.75425498 -1154.27636719 483.42382812 C-1156.71230065 481.41159527 -1159.17042475 479.4269225 -1161.625 477.4375 C-1172.12327709 468.82514095 -1182.32961199 459.9282306 -1192.24023438 450.64648438 C-1194.1508587 448.85885251 -1196.06747391 447.07777352 -1197.984375 445.296875 C-1217.96537642 426.69770191 -1217.96537642 426.69770191 -1226.390625 416.828125 C-1228.02586434 414.97062012 -1229.73481793 413.23393991 -1231.5 411.5 C-1235.21199457 407.83717092 -1238.60846641 403.95893845 -1242 400 C-1242.86367187 399.00226563 -1243.72734375 398.00453125 -1244.6171875 396.9765625 C-1256.94120024 382.71445726 -1268.86839589 368.21545118 -1280 353 C-1280.80268311 351.90703613 -1280.80268311 351.90703613 -1281.62158203 350.79199219 C-1289.02109067 340.7015557 -1296.18869662 330.49630596 -1303 320 C-1303.51111328 319.21737793 -1304.02222656 318.43475586 -1304.54882812 317.62841797 C-1320.22877778 293.56700762 -1334.11499467 268.64293961 -1347 243 C-1347.52158691 241.97148926 -1348.04317383 240.94297852 -1348.58056641 239.88330078 C-1362.66071991 212.00230738 -1374.08457009 182.59958625 -1384 153 C-1384.37286133 151.88947266 -1384.74572266 150.77894531 -1385.12988281 149.63476562 C-1390.22789999 134.26567835 -1394.40463042 118.75945118 -1398.28125 103.046875 C-1398.74220658 101.1892143 -1399.2034678 99.33162916 -1399.66503906 97.47412109 C-1400.78019535 92.983608 -1401.89126331 88.49210224 -1403 84 C-1401.69449904 84.00282039 -1400.38899808 84.00564079 -1399.04393649 84.00854665 C-1341.45831654 84.13209697 -1283.87268273 84.23935597 -1226.28692627 84.26445007 C-1225.41393512 84.26483508 -1224.54094396 84.26522008 -1223.64149853 84.26561675 C-1204.66515186 84.27388894 -1185.6888054 84.2792669 -1166.71245711 84.28166701 C-1157.40530983 84.28286177 -1148.09816272 84.28469551 -1138.79101562 84.28686523 C-1137.40181927 84.28717277 -1137.40181927 84.28717277 -1135.98455835 84.28748652 C-1106.01203348 84.29442088 -1076.03975906 84.34347941 -1046.06732347 84.41458252 C-1015.24475063 84.48747844 -984.42242255 84.51747801 -953.59976528 84.49415877 C-949.23776744 84.49087849 -944.87576941 84.48808423 -940.51377106 84.48558617 C-939.6553393 84.48507952 -938.79690755 84.48457286 -937.91246271 84.48405086 C-924.14138568 84.47716936 -910.37078336 84.51497743 -896.59982917 84.5698591 C-882.7265076 84.62418189 -868.85380024 84.63056392 -854.98042843 84.58934812 C-847.47483943 84.5683466 -839.97068284 84.56785889 -832.46525955 84.62704659 C-792.13605473 85.95140785 -792.13605473 85.95140785 -755.40030432 71.52789724 C-751.71547621 69.1823452 -747.78574087 67.53299562 -743.76171875 65.86328125 C-742.41362004 65.27261239 -741.06651996 64.67965279 -739.72094727 64.08325195 C-739.06490509 63.79535797 -738.40886292 63.50746399 -737.73294067 63.21084595 C-724.10681232 57.22632763 -710.56452133 51.07148338 -697.0625 44.8125 C-684.85066559 39.15276153 -672.62072755 33.54645592 -660.32788086 28.06420898 C-648.13541992 22.62528516 -635.97558667 17.11466282 -623.8164978 11.60159302 C-621.16176548 10.39791395 -618.50667545 9.19502665 -615.8515625 7.9921875 C-615.06112045 7.6333699 -614.27067841 7.27455231 -613.45628357 6.90486145 C-612.70839066 6.5661351 -611.96049774 6.22740875 -611.18994141 5.87841797 C-610.54683014 5.58675751 -609.90371887 5.29509705 -609.24111938 4.99459839 C-608.13176529 4.50227219 -608.13176529 4.50227219 -607 4 C-605.98174983 3.49271016 -604.96349966 2.98542032 -603.91439342 2.46275806 C-599.6356558 0.64420634 -595.72772513 0.57357813 -591.12858582 0.60127258 C-590.25330197 0.59462558 -589.37801813 0.58797858 -588.47621053 0.58113015 C-585.53634948 0.56247657 -582.59689604 0.56511071 -579.65698242 0.56762695 C-577.52452981 0.55859005 -575.39208235 0.54826041 -573.25964165 0.53675175 C-567.37536684 0.50888827 -561.49118893 0.49983917 -555.60685658 0.49390173 C-549.21194407 0.48432062 -542.81709713 0.45786162 -536.42222595 0.43374634 C-524.51422485 0.39154812 -512.6062405 0.36346437 -500.69818499 0.3422491 C-489.62548823 0.32244996 -478.55283032 0.29594741 -467.48016357 0.26345825 C-464.49001316 0.25473552 -461.4998627 0.24602653 -458.50971222 0.23732471 C-457.39189777 0.23406942 -457.39189777 0.23406942 -456.2515012 0.23074836 C-368.50169431 -0.02353951 -280.75134223 -0.05584708 0 0 Z " fill="#39AC60" transform="translate(1458,822)"/>
<path d="M0 0 C0.82175028 -0.00282738 1.64350056 -0.00565475 2.49015236 -0.00856781 C6.85761439 -0.02344127 11.22504453 -0.03273961 15.5925293 -0.03710938 C19.11054113 -0.04144774 22.62830129 -0.05517456 26.14624023 -0.078125 C56.93756207 -0.27466198 87.47792172 1.11464804 117.98828125 5.515625 C119.10089828 5.67144547 119.10089828 5.67144547 120.23599243 5.83041382 C191.60384632 15.83457165 260.39249849 36.39011228 325.64160156 66.99072266 C327.99804516 68.0909576 330.36173514 69.17264468 332.73046875 70.24609375 C344.55541966 75.64012453 355.89845634 81.86264212 367.23828125 88.203125 C368.11000977 88.68797363 368.98173828 89.17282227 369.87988281 89.67236328 C389.93873615 100.85363948 409.52873375 112.87609228 428.23828125 126.203125 C428.96740723 126.72116699 429.6965332 127.23920898 430.44775391 127.77294922 C443.68654171 137.20044364 456.60697911 146.97298093 469.23828125 157.203125 C470.08648438 157.88761719 470.9346875 158.57210937 471.80859375 159.27734375 C483.39796546 168.68737297 494.64902573 178.42571048 505.54785156 188.62597656 C507.29993468 190.26064683 509.06117276 191.88497651 510.82421875 193.5078125 C517.58274091 199.74507752 524.22238856 206.0873139 530.73828125 212.578125 C531.38450439 213.21975586 532.03072754 213.86138672 532.6965332 214.52246094 C536.47251135 218.31066225 540.05034907 222.21793996 543.54589844 226.265625 C546.1575317 229.25551559 548.88963339 232.12818317 551.61328125 235.015625 C556.26341535 239.98497053 560.68795063 245.06208672 564.94140625 250.37890625 C567.08561096 253.01540285 569.28998001 255.58020145 571.5246582 258.1394043 C577.95554672 265.51882572 583.88160426 273.18698926 589.66992188 281.07714844 C591.25594566 283.22706984 592.8618415 285.36079283 594.47265625 287.4921875 C616.07753021 316.21473887 635.12065565 346.86019047 651.87597656 378.63867188 C653.0650868 380.87709731 654.27867289 383.09809535 655.51171875 385.3125 C668.87338082 409.49338395 679.40732878 435.42119566 689.23828125 461.203125 C689.66415527 462.31300781 690.0900293 463.42289062 690.52880859 464.56640625 C711.1865948 518.88067923 724.00236946 576.48504774 730.23828125 634.203125 C730.31346985 634.89581482 730.38865845 635.58850464 730.46612549 636.30218506 C732.40147814 654.34061809 733.43258582 672.21074111 733.31640625 690.35546875 C733.31011143 692.1021708 733.3044125 693.8488751 733.29931641 695.59558105 C733.28579687 699.7981533 733.26436723 704.00061275 733.23828125 708.203125 C698.80085971 708.38636533 664.36335599 708.55147881 629.92578125 708.703125 C629.25685569 708.70607146 628.58793013 708.70901791 627.89873409 708.71205366 C544.42134861 709.07913237 460.94423382 709.27220794 311.98268634 709.32595563 C299.12688515 709.32711866 286.27108584 709.33033274 273.41528536 709.33469658 C255.42601857 709.34075724 237.4367573 709.34298638 219.4474898 709.33868635 C217.66383239 709.33826804 215.88017498 709.337854 214.09651756 709.33744431 C213.22128179 709.3372422 212.34604601 709.3370401 211.44428794 709.33683188 C205.3294529 709.33566046 199.21462136 709.33694315 193.09978676 709.33928299 C185.76533085 709.3420499 178.43088559 709.34139811 171.09643089 709.33608942 C167.38415582 709.33348986 163.67189862 709.3324932 159.95962369 709.33579731 C155.96306231 709.33930044 151.96653099 709.33513293 147.9699707 709.33010864 C146.79619977 709.33233921 145.62242884 709.33456977 144.4130891 709.33686793 C143.35451094 709.33426034 142.29593278 709.33165275 141.20527649 709.32896614 C139.82853744 709.32872261 139.82853744 709.32872261 138.42398548 709.32847416 C136.23828125 709.203125 136.23828125 709.203125 134.23828125 708.203125 C134.61118933 705.80254905 134.86183089 704.53495395 136.71508789 702.90136719 C137.35309326 702.52141602 137.99109863 702.14146484 138.6484375 701.75 C139.37820801 701.30438721 140.10797852 700.85877441 140.85986328 700.3996582 C141.66536621 699.92230225 142.47086914 699.44494629 143.30078125 698.953125 C145.051235 697.88176979 146.79984914 696.80740467 148.546875 695.73046875 C149.47612793 695.15925293 150.40538086 694.58803711 151.36279297 693.99951172 C156.26284023 690.93833429 161.06295172 687.73016305 165.86328125 684.515625 C166.85948486 683.84877686 167.85568848 683.18192871 168.88208008 682.49487305 C172.00326609 680.40124617 175.12120668 678.30286759 178.23828125 676.203125 C179.33172852 675.46771484 180.42517578 674.73230469 181.55175781 673.97460938 C184.86748763 671.74351803 188.17828219 669.50521027 191.48828125 667.265625 C192.98609131 666.25592651 192.98609131 666.25592651 194.51416016 665.22583008 C216.0800522 650.5829671 224.27369709 638.42495507 230.515625 613.11621094 C231.12017257 610.67530074 231.74494692 608.24013573 232.37109375 605.8046875 C232.76293357 604.23988703 233.15360265 602.67479283 233.54296875 601.109375 C233.72930878 600.38850708 233.9156488 599.66763916 234.1076355 598.92492676 C235.05170855 595.02258051 235.40813041 592.0755991 234.23828125 588.203125 C230.68941628 588.8866836 227.9312027 590.3349513 224.78515625 592.08984375 C223.70347168 592.69127197 222.62178711 593.2927002 221.50732422 593.91235352 C220.33416996 594.57152836 219.16115933 595.23095887 217.98828125 595.890625 C216.76977285 596.57167428 215.55118449 597.25258052 214.33251953 597.93334961 C205.54802452 602.85257155 196.8410128 607.89918536 188.16113281 613.00073242 C181.07019865 617.16048996 173.9219156 621.20584296 166.73828125 625.203125 C158.51625535 629.778789 150.35246695 634.43883248 142.23828125 639.203125 C133.08914836 644.57509293 123.86424994 649.79389025 114.59375 654.953125 C107.4247443 658.95276952 100.31735362 663.04660544 93.23828125 667.203125 C84.08914836 672.57509293 74.86424994 677.79389025 65.59375 682.953125 C58.4247443 686.95276952 51.31735362 691.04660544 44.23828125 695.203125 C35.08914836 700.57509293 25.86424994 705.79389025 16.59375 710.953125 C9.4247443 714.95276952 2.31735362 719.04660544 -4.76171875 723.203125 C-13.91085164 728.57509293 -23.13575006 733.79389025 -32.40625 738.953125 C-39.5752557 742.95276952 -46.68264638 747.04660544 -53.76171875 751.203125 C-62.89924795 756.56827976 -72.11207967 761.78113284 -81.37109375 766.93334961 C-89.88085571 771.68066892 -98.30851972 776.5601992 -106.70898438 781.49804688 C-111.0668205 784.05808579 -115.4294187 786.60929942 -119.82421875 789.10546875 C-120.53707031 789.51144287 -121.24992188 789.91741699 -121.984375 790.33569336 C-123.76171875 791.203125 -123.76171875 791.203125 -125.76171875 791.203125 C-126.06334016 779.47708635 -126.29411404 767.7519743 -126.43527699 756.02284241 C-126.50304256 750.5758435 -126.59488652 745.13150344 -126.74243164 739.68603516 C-126.88401959 734.4273281 -126.96147539 729.17117186 -126.99512291 723.91070557 C-127.01908792 721.90732649 -127.06589465 719.90408259 -127.13620949 717.90179443 C-127.65119108 702.62516222 -127.65119108 702.62516222 -124.50867462 698.59689903 C-121.01694542 695.54880688 -117.05539451 693.90125733 -112.76171875 692.203125 C-110.99053292 691.24435606 -109.22957432 690.26595151 -107.48828125 689.25390625 C-105.7894155 688.33806901 -104.08885325 687.42537267 -102.38671875 686.515625 C-94.73715312 682.38466181 -87.1335629 678.18448463 -79.57421875 673.890625 C-71.16231164 669.11456786 -62.72265851 664.39177826 -54.26171875 659.703125 C-45.90757541 655.0725697 -37.57057212 650.41447256 -29.26171875 645.703125 C-19.85464226 640.36993408 -10.41022554 635.10635388 -0.95361328 629.86157227 C9.76301066 623.91680118 20.45629091 617.93088611 31.14550781 611.93701172 C36.3419887 609.0237336 41.54022821 606.11359673 46.73828125 603.203125 C48.82162291 602.0364732 50.90495624 600.86980654 52.98828125 599.703125 C90.48828125 578.703125 90.48828125 578.703125 93.61376953 576.95288086 C95.69550857 575.78708748 97.77721434 574.62123468 99.85888672 573.45532227 C105.09134048 570.5248044 110.32438211 567.59534584 115.55859375 564.66796875 C125.58972731 559.05640085 135.61274171 553.43155731 145.61328125 547.765625 C155.10808196 542.38710062 164.6426639 537.0823861 174.18652344 531.79150391 C182.36291412 527.25490325 190.51300673 522.67399559 198.6472168 518.06225586 C203.71479904 515.19043432 208.78939712 512.33199875 213.875 509.4921875 C214.98858887 508.87029541 216.10217773 508.24840332 217.24951172 507.60766602 C219.37928747 506.41929462 221.50976994 505.23218849 223.64111328 504.04663086 C229.26139504 500.9101929 234.80181948 497.68654981 240.26635742 494.28491211 C242.23828125 493.203125 242.23828125 493.203125 244.23828125 493.203125 C246.98873348 487.88558401 247.37340367 483.51902966 247.3359375 477.59765625 C247.33452255 476.75845139 247.3331076 475.91924652 247.33164978 475.05461121 C247.3260534 472.37491284 247.3135016 469.6952981 247.30078125 467.015625 C247.29576578 465.19856892 247.29120296 463.38151152 247.28710938 461.56445312 C247.27608516 457.11064487 247.25882303 452.65689911 247.23828125 448.203125 C244.28916905 446.85572341 244.28916905 446.85572341 241.69238281 448.26025391 C240.68143555 448.81116699 239.67048828 449.36208008 238.62890625 449.9296875 C237.49396729 450.54255615 236.35902832 451.1554248 235.18969727 451.78686523 C233.95570477 452.46694568 232.72190425 453.14737456 231.48828125 453.828125 C230.21252279 454.52288668 228.9363954 455.21697133 227.65991211 455.91040039 C219.06504446 460.59283828 210.52884347 465.37988858 202.02294922 470.22192383 C194.42064881 474.54935692 186.77577331 478.79611435 179.11328125 483.015625 C178.50527679 483.35051941 177.89727234 483.68541382 177.27084351 484.03045654 C174.17057184 485.73787627 171.06981358 487.44440967 167.96875 489.15039062 C161.8479189 492.51788733 155.73043827 495.89146011 149.61328125 499.265625 C149.01247742 499.59696442 148.41167358 499.92830383 147.79266357 500.26968384 C137.98455925 505.67936608 128.1906717 511.11431922 118.40185547 516.55883789 C109.58034865 521.46317408 100.7447478 526.34154288 91.90527344 531.21337891 C83.17347307 536.02634727 74.45159127 540.85672891 65.73828125 545.703125 C55.80555595 551.22776729 45.85929998 556.72726252 35.90527344 562.21337891 C27.17347307 567.02634727 18.45159127 571.85672891 9.73828125 576.703125 C0.41526189 581.88864514 -8.91876386 587.05365472 -18.26171875 592.203125 C-27.64524732 597.37534196 -37.02139824 602.56047558 -46.38671875 607.765625 C-48.04247925 608.68577393 -48.04247925 608.68577393 -49.73168945 609.62451172 C-55.35937898 612.7529721 -60.98523301 615.88469801 -66.609375 619.01953125 C-72.22397027 622.14785708 -77.8434688 625.26718837 -83.46728516 628.37890625 C-85.66877228 629.59793039 -87.86896395 630.8192969 -90.06787109 632.04296875 C-119.14311996 648.203125 -119.14311996 648.203125 -126.76171875 648.203125 C-126.99546667 632.79148367 -127.17173201 617.37997512 -127.27984047 601.96697807 C-127.33137568 594.81006443 -127.40161202 587.65425295 -127.51611328 580.49804688 C-127.61588324 574.25954963 -127.68032209 568.0218505 -127.7026037 561.78257763 C-127.71562796 558.47918768 -127.75141599 555.17860933 -127.81901932 551.87582016 C-127.89156123 548.18520164 -127.90161314 544.49932139 -127.89697266 540.80810547 C-127.93292542 539.71693924 -127.96887817 538.62577301 -128.00592041 537.50154114 C-127.96402425 534.42475188 -127.83506604 532.09002384 -126.76171875 529.203125 C-123.72849926 526.45602418 -120.4846824 524.84190426 -116.76171875 523.203125 C-115.1849939 522.30219116 -115.1849939 522.30219116 -113.57641602 521.38305664 C-112.66947998 520.88153076 -111.76254395 520.38000488 -110.828125 519.86328125 C-109.78140625 519.28320312 -108.7346875 518.703125 -107.65625 518.10546875 C-106.00689453 517.19474609 -106.00689453 517.19474609 -104.32421875 516.265625 C-103.13921985 515.60956113 -101.95432636 514.95330684 -100.76953125 514.296875 C-98.31697301 512.93823344 -95.86397124 511.58039791 -93.41064453 510.22314453 C-87.69008864 507.05745528 -81.97630751 503.87956857 -76.26171875 500.703125 C-74.0117495 499.45306966 -71.76174942 498.20306979 -69.51171875 496.953125 C-68.39796875 496.334375 -67.28421875 495.715625 -66.13671875 495.078125 C78.98828125 414.453125 78.98828125 414.453125 82.36425781 412.57763672 C84.61106404 411.32937491 86.85780898 410.08100276 89.10449219 408.83251953 C94.77785572 405.68001121 100.45231847 402.52951184 106.12890625 399.3828125 C116.64659923 393.55019216 127.15290194 387.70051389 137.61328125 381.765625 C146.20517952 376.89247346 154.83642455 372.09367265 163.48828125 367.328125 C164.71045713 366.65455538 165.93262511 365.9809714 167.15478516 365.30737305 C172.1072196 362.578421 177.06013839 359.85035959 182.015625 357.12695312 C185.0916058 355.43614558 188.16532936 353.74129495 191.2376709 352.04388428 C192.93065002 351.10991842 194.62593092 350.1801287 196.32128906 349.25048828 C207.69662009 343.45058963 207.69662009 343.45058963 217.23828125 335.203125 C216.94572943 329.75349697 215.38101848 324.50713296 213.92578125 319.265625 C213.72533203 318.50572266 213.52488281 317.74582031 213.31835938 316.96289062 C211.85626604 311.66223645 209.82720639 307.0552896 207.23828125 302.203125 C203.01625524 302.73370353 199.95417084 303.64355324 196.2890625 305.79296875 C195.36867188 306.32470703 194.44828125 306.85644531 193.5 307.40429688 C192.52675781 307.97728516 191.55351563 308.55027344 190.55078125 309.140625 C188.47528473 310.33953871 186.3984428 311.53612612 184.3203125 312.73046875 C183.28986816 313.32327637 182.25942383 313.91608398 181.19775391 314.52685547 C177.09430794 316.85108084 172.92776841 319.03902203 168.73828125 321.203125 C161.87774056 324.76202145 155.13661019 328.49477508 148.42578125 332.328125 C139.34253031 337.51223189 130.16418059 342.49084426 120.92578125 347.390625 C112.17311276 352.03316724 103.44226438 356.70225388 94.79956055 361.54760742 C88.64504778 364.99352914 82.44478491 368.35189366 76.23828125 371.703125 C69.32290449 375.43944604 62.41652119 379.18876619 55.55078125 383.015625 C54.85404297 383.40395508 54.15730469 383.79228516 53.43945312 384.19238281 C52.70919922 384.5994043 51.97894531 385.00642578 51.2265625 385.42578125 C44.90477375 388.94869034 38.57308885 392.4536946 32.23828125 395.953125 C31.3107605 396.46551224 31.3107605 396.46551224 30.36450195 396.98825073 C20.3686554 402.50672334 10.32972696 407.94029755 0.26879883 413.33935547 C-7.1352728 417.31632168 -14.49774926 421.36013006 -21.8359375 425.45703125 C-28.17545994 428.99596145 -34.53067234 432.50649244 -40.88671875 436.015625 C-41.51013153 436.35991547 -42.13354431 436.70420593 -42.77584839 437.05892944 C-51.20626954 441.71309258 -59.65956581 446.32196965 -68.13671875 450.890625 C-75.8964602 455.07384159 -83.59884376 459.34506086 -91.26171875 463.703125 C-99.50791939 468.39250648 -107.79880289 472.99117453 -116.13671875 477.515625 C-117.18408203 478.08539062 -118.23144531 478.65515625 -119.31054688 479.2421875 C-120.27154297 479.76167969 -121.23253906 480.28117187 -122.22265625 480.81640625 C-123.07649902 481.27829346 -123.9303418 481.74018066 -124.81005859 482.21606445 C-126.76171875 483.203125 -126.76171875 483.203125 -127.76171875 483.203125 C-127.87850132 467.6262354 -127.96668184 452.04942514 -128.02077961 436.4722023 C-128.04656547 429.23945739 -128.08172271 422.00698443 -128.13891602 414.77441406 C-128.18874 408.47075208 -128.221007 402.16728702 -128.23216122 395.8634336 C-128.23868216 392.52510595 -128.25662976 389.1877877 -128.29036903 385.84955597 C-128.32653714 382.12364456 -128.33166892 378.39890957 -128.3293457 374.67285156 C-128.35631027 373.01129028 -128.35631027 373.01129028 -128.38381958 371.31616211 C-128.33319678 363.8391191 -128.33319678 363.8391191 -125.41775513 360.59454346 C-124.10301712 359.90579132 -124.10301712 359.90579132 -122.76171875 359.203125 C-121.75052979 358.63142578 -120.73934082 358.05972656 -119.69750977 357.47070312 C-118.56498779 356.89771484 -117.43246582 356.32472656 -116.265625 355.734375 C-115.64495651 355.41779938 -115.02428802 355.10122375 -114.3848114 354.77505493 C-113.05701304 354.09819314 -111.72798137 353.42374616 -110.39782715 352.75152588 C-106.86287189 350.96427897 -103.33769776 349.15796035 -99.8125 347.3515625 C-99.11087738 346.99238739 -98.40925476 346.63321228 -97.68637085 346.26315308 C-92.07340311 343.38190285 -86.52936724 340.38801517 -81.01171875 337.328125 C-70.77068866 331.66350291 -60.36105251 326.34400155 -49.9420166 321.01715088 C-41.15268199 316.5211522 -32.39858116 311.98786568 -23.76171875 307.203125 C-13.60531371 301.57657197 -3.27763456 296.30131044 7.05908203 291.01660156 C15.84805826 286.52078085 24.60165122 281.98745131 33.23828125 277.203125 C42.70067168 271.96387264 52.30085614 267.00990377 61.92578125 262.078125 C62.69415314 261.68434662 63.46252502 261.29056824 64.25418091 260.88485718 C67.25734425 259.34597764 70.26059549 257.80726987 73.26402283 256.26890564 C83.78499601 250.87718085 94.23419216 245.35654937 104.6484375 239.76171875 C106.3804541 238.83153931 106.3804541 238.83153931 108.14746094 237.88256836 C109.93758314 236.92107432 111.72738075 235.95899829 113.51623535 234.99514771 C120.30832722 231.33570591 127.12201918 227.73011729 134 224.234375 C134.62742096 223.91430481 135.25484192 223.59423462 135.90127563 223.26446533 C138.91934551 221.72510063 141.9412908 220.19579603 144.97265625 218.68261719 C146.04386719 218.13766602 147.11507813 217.59271484 148.21875 217.03125 C149.64030396 216.3182373 149.64030396 216.3182373 151.09057617 215.59082031 C153.54619452 214.32139639 153.54619452 214.32139639 154.23828125 211.203125 C153.3386273 208.87937228 153.3386273 208.87937228 151.88671875 206.4140625 C151.36464844 205.47175781 150.84257813 204.52945313 150.3046875 203.55859375 C149.46744141 202.08326172 149.46744141 202.08326172 148.61328125 200.578125 C147.81083984 199.13759766 147.81083984 199.13759766 146.9921875 197.66796875 C145.9297836 195.76287952 144.86311109 193.86016391 143.79199219 191.95996094 C141.58906885 188.05119124 139.41351957 184.12734775 137.23828125 180.203125 C132.41233086 180.76036882 128.86871371 182.17889673 124.578125 184.4296875 C123.9329744 184.76482361 123.28782379 185.09995972 122.62312317 185.44525146 C121.2148252 186.17802 119.80849814 186.914586 118.40393066 187.65447998 C116.12040635 188.85729291 113.83197782 190.05026103 111.54199219 191.24072266 C109.06804998 192.52684213 106.59440979 193.81350581 104.1222229 195.10299683 C95.05615329 199.83019372 85.94981029 204.47774186 76.84146118 209.12280273 C72.04545203 211.56910443 67.25126193 214.0189652 62.45703125 216.46875 C61.51169022 216.95174561 60.56634918 217.43474121 59.59236145 217.93237305 C50.21969349 222.72191157 40.85318535 227.52342756 31.48828125 232.328125 C30.3020517 232.93670853 30.3020517 232.93670853 29.09185791 233.55758667 C28.30115906 233.9632486 27.51046021 234.36891052 26.69580078 234.78686523 C25.09798339 235.60661122 23.50016438 236.42635406 21.90234375 237.24609375 C21.11183624 237.65166 20.32132874 238.05722626 19.50686646 238.4750824 C10.29444004 243.20103318 1.07895218 247.92100504 -8.13671875 252.640625 C-9.41101746 253.2932431 -9.41101746 253.2932431 -10.71105957 253.95904541 C-15.00884079 256.16009208 -19.30665693 258.36107055 -23.60449219 260.56201172 C-28.74294932 263.19346863 -33.8812594 265.82521257 -39.01953125 268.45703125 C-39.86584106 268.89049866 -40.71215088 269.32396606 -41.58410645 269.77056885 C-45.83255655 271.946587 -50.08091493 274.12278393 -54.32910156 276.29931641 C-62.25604998 280.36040468 -70.18384216 284.41981838 -78.11468506 288.47329712 C-81.81597 290.36516588 -85.5167667 292.25798862 -89.2175293 294.15087891 C-90.96321803 295.04344271 -92.7091396 295.93555132 -94.45532227 296.82714844 C-96.89400542 298.07237255 -99.33199779 299.31893322 -101.76953125 300.56640625 C-102.53344177 300.95712311 -103.29735229 301.34783997 -104.08441162 301.75039673 C-107.80758969 303.66146488 -111.5145209 305.59732008 -115.19824219 307.58349609 C-115.89432587 307.95878952 -116.59040955 308.33408295 -117.30758667 308.7207489 C-118.61198964 309.42712795 -119.91431013 310.13737118 -121.21414185 310.85212708 C-125.54520221 313.203125 -125.54520221 313.203125 -127.76171875 313.203125 C-127.76171875 269.643125 -127.76171875 226.083125 -127.76171875 181.203125 C-109.6714442 171.02734557 -109.6714442 171.02734557 -100.63671875 166.390625 C-93.0419726 162.46217765 -85.50236476 158.45147293 -78.01171875 154.328125 C-68.68576943 149.19927486 -59.2554209 144.29113504 -49.79443359 139.41674805 C-41.78782242 135.28127128 -33.86274913 131.01761976 -25.96875 126.671875 C-19.1183856 122.91265028 -12.20408363 119.28923316 -5.26171875 115.703125 C2.83074604 111.52193488 10.87482338 107.26744291 18.86328125 102.890625 C19.76272461 102.39788086 20.66216797 101.90513672 21.58886719 101.39746094 C23.31947797 100.44866397 25.04995185 99.49961724 26.78027344 98.55029297 C30.50999191 96.50613459 34.24472036 94.47181978 37.98828125 92.453125 C38.60268066 92.11756592 39.21708008 91.78200684 39.85009766 91.4362793 C44.00796951 89.203125 44.00796951 89.203125 46.23828125 89.203125 C42.86806946 84.88504114 39.26848671 81.33958285 35.078125 77.8125 C33.23828125 76.203125 33.23828125 76.203125 31.23828125 73.828125 C28.16373379 71.33005519 25.08187962 70.98733307 21.23828125 71.203125 C17.29072634 72.447296 13.6818664 74.28721928 9.98828125 76.140625 C8.26289992 76.97145599 6.53744847 77.80215104 4.80990601 78.628479 C3.57455504 79.21962248 2.34022208 79.81289736 1.10684204 80.40814209 C-5.74080173 83.70410974 -12.68612198 86.77237227 -19.63949585 89.83728027 C-23.46785791 91.52528032 -27.29251247 93.22163481 -31.1171875 94.91796875 C-31.89868668 95.26445465 -32.68018585 95.61094055 -33.48536682 95.96792603 C-42.73881181 100.07434527 -51.9691277 104.23204763 -61.19921875 108.390625 C-62.89362497 109.15367047 -64.58804221 109.91669147 -66.2824707 110.6796875 C-72.53508031 113.495597 -78.78739558 116.3121566 -85.03808594 119.13232422 C-87.67139278 120.32034752 -90.30522859 121.50718228 -92.93969727 122.69262695 C-95.232693 123.72445193 -97.52495083 124.75791977 -99.81616211 125.79370117 C-109.40128703 130.10266502 -119.06555702 134.12053059 -128.76171875 138.203125 C-128.76171875 115.103125 -128.76171875 92.003125 -128.76171875 68.203125 C-157.80171875 68.203125 -186.84171875 68.203125 -216.76171875 68.203125 C-216.76171875 93.283125 -216.76171875 118.363125 -216.76171875 144.203125 C-221.02779554 142.7810994 -224.68072553 141.38302039 -228.671875 139.4375 C-229.81140625 138.88449219 -230.9509375 138.33148438 -232.125 137.76171875 C-233.35808723 137.15888344 -234.59115974 136.55601802 -235.82421875 135.953125 C-237.11830031 135.32382937 -238.41257478 134.69493033 -239.70703125 134.06640625 C-242.394141 132.7612988 -245.08041545 131.4544947 -247.76611328 130.14648438 C-252.73564107 127.72760124 -257.7132936 125.32569677 -262.69165039 122.92504883 C-265.07561095 121.77521132 -267.45891035 120.62400204 -269.84155273 119.47143555 C-275.43983987 116.76398315 -281.04165252 114.06524773 -286.65985107 111.39932251 C-289.27553122 110.15744356 -291.88869944 108.9103282 -294.50170898 107.6628418 C-296.31839321 106.79814622 -298.13862532 105.94091666 -299.95898438 105.08398438 C-306.41169875 102.00015702 -312.47583148 98.65811012 -318.43505859 94.69897461 C-320.49738474 93.37306986 -322.54707419 92.24848578 -324.76171875 91.203125 C-324.76171875 90.543125 -324.76171875 89.883125 -324.76171875 89.203125 C-299.06574042 75.72016686 -299.06574042 75.72016686 -287.79345703 70.20263672 C-286.40607204 69.52011399 -285.02174459 68.83134972 -283.64013672 68.13720703 C-205.41827444 28.86327793 -117.25537609 7.45938653 0 0 Z " fill="#2944A7" transform="translate(727.76171875,38.796875)"/>
<path d="M0 0 C1.14878168 0.00394052 1.14878168 0.00394052 2.32077107 0.00796065 C3.13065591 0.0068068 3.94054075 0.00565296 4.77496755 0.00446415 C7.52398156 0.00179003 10.2729385 0.00632613 13.02194962 0.01075396 C14.99859219 0.01031842 16.9752347 0.00944383 18.95187691 0.00816479 C24.41097871 0.00591644 29.8700611 0.00994573 35.32916042 0.01494285 C41.2058167 0.01924232 47.08247178 0.01780129 52.95912918 0.01704058 C63.14994873 0.01651502 73.34076189 0.01966512 83.53157982 0.02527842 C94.22340731 0.03116387 104.91523206 0.03504306 115.60706124 0.03613123 C116.2710526 0.03619997 116.93504397 0.03626871 117.61915629 0.03633953 C120.99102884 0.03667785 124.3629014 0.03697924 127.73477396 0.03726641 C151.63762473 0.03936861 175.54047218 0.04611095 199.44332108 0.05556902 C222.66923236 0.06474866 245.89514273 0.07183462 269.12105545 0.07607684 C270.19433734 0.07627412 270.19433734 0.07627412 271.28930168 0.0764754 C278.47465062 0.07779388 285.65999956 0.0790697 292.84534851 0.08031426 C307.48363251 0.08285069 322.12191644 0.08567194 336.76020035 0.08866534 C337.43329226 0.08880263 338.10638416 0.08893992 338.79987279 0.08908137 C383.77225083 0.098287 428.74462697 0.11415353 473.71700272 0.13100848 C460.86374645 33.14761292 434.80900229 64.73208882 412.71700272 92.13100848 C411.95903397 93.0720241 411.20106522 94.01303973 410.42012772 94.98257098 C402.20072588 105.09651579 393.81193417 115.03725608 384.99434647 124.63491473 C382.96904712 126.85475398 380.99102501 129.10494364 379.02950272 131.38100848 C376.29803417 134.52827435 373.41116866 137.45783886 370.43965897 140.37710223 C368.75737199 142.08990688 367.20596513 143.86208292 365.65450272 145.69350848 C358.26599604 154.25214065 350.06427776 162.3208965 341.43965897 169.62710223 C339.61269765 171.22206846 337.91640985 172.9011869 336.21700272 174.63100848 C332.55403646 178.34314207 328.67465671 181.73781729 324.71700272 185.13100848 C323.67368892 186.03816387 322.63074893 186.94574929 321.58809647 187.85366473 C314.63035964 193.89090348 307.54460522 199.7099189 300.26778397 205.35757098 C297.86804422 207.22205033 295.49302712 209.11252536 293.13497147 211.02944598 C256.79502929 240.56539684 216.33575673 264.84743374 174.71700272 286.13100848 C173.99738358 286.50177508 173.27776444 286.87254168 172.53633866 287.25454363 C96.68404869 326.30110649 13.02353919 349.52518588 -123.04471603 361.33413348 C-123.86646631 361.33696085 -124.68821659 361.33978823 -125.53486839 361.34270129 C-129.90233042 361.35757474 -134.26976056 361.36687309 -138.63724533 361.37124285 C-142.15525716 361.37558122 -145.67301732 361.38930804 -149.19095626 361.41225848 C-179.9822781 361.60879546 -210.52263775 360.21948543 -241.03299728 355.81850848 C-241.77474197 355.71462817 -242.51648666 355.61074786 -243.28070846 355.50371966 C-320.32657959 344.70363232 -395.67104659 321.9719418 -464.94364181 286.32729754 C-467.71441813 284.91039043 -470.49723727 283.51822589 -473.27909103 282.12319598 C-490.15578125 273.59096021 -506.25014956 264.13688248 -522.28299728 254.13100848 C-524.07824525 253.02240918 -525.87379185 251.91429324 -527.66971603 250.80678973 C-538.15983487 244.30158079 -548.29376862 237.3787068 -558.28299728 230.13100848 C-559.05143966 229.57655047 -559.81988205 229.02209246 -560.61161056 228.45083269 C-571.19797878 220.80092394 -581.50008146 212.88526346 -591.55936447 204.5548366 C-593.99529793 202.54260375 -596.45342203 200.55793098 -598.90799728 198.56850848 C-609.40627437 189.95614943 -619.61260927 181.05923908 -629.52323166 171.77749285 C-631.43385599 169.98986099 -633.35047119 168.208782 -635.26737228 166.42788348 C-655.2483737 147.82871039 -655.2483737 147.82871039 -663.67362228 137.95913348 C-665.30886162 136.10162859 -667.01781521 134.36494838 -668.78299728 132.63100848 C-672.49513087 128.96804222 -675.8898061 125.08866247 -679.28299728 121.13100848 C-680.19015267 120.08769467 -681.09773809 119.04475469 -682.00565353 118.00210223 C-687.31780784 111.87985526 -692.51536988 105.68526156 -697.53299728 99.31850848 C-698.0109172 98.71377703 -698.48883712 98.10904559 -698.98123947 97.48598894 C-702.28299728 93.25782985 -702.28299728 93.25782985 -702.28299728 92.13100848 C-700.65744148 92.13580865 -700.65744148 92.13580865 -698.99904618 92.14070579 C-651.18566828 92.2809716 -603.37228883 92.40363648 -555.55870834 92.43780169 C-554.47104819 92.43858628 -554.47104819 92.43858628 -553.3614151 92.43938672 C-537.59878701 92.45065301 -521.83615875 92.45880074 -506.07352744 92.46374082 C-498.34232508 92.46618277 -490.61112306 92.46931307 -482.87992111 92.47280535 C-482.11061793 92.47314114 -481.34131475 92.47347692 -480.54869936 92.47382288 C-455.66182384 92.48500756 -430.77530544 92.54155033 -405.88856511 92.62188822 C-380.29102221 92.7042791 -354.69381456 92.74036454 -329.09613811 92.71908224 C-325.47168579 92.71609017 -321.84723329 92.71362151 -318.22278038 92.71147189 C-317.509512 92.71103266 -316.79624362 92.71059343 -316.06136105 92.71014089 C-304.62946128 92.70444223 -293.19823341 92.74683217 -281.76651551 92.80769961 C-270.24325969 92.86801022 -258.72115158 92.87536333 -247.19775241 92.83385797 C-240.96590608 92.81291874 -234.73624117 92.81394324 -228.5046331 92.87726054 C-192.74258926 93.35938672 -192.74258926 93.35938672 -160.84124783 78.84156212 C-157.15467847 76.37656718 -153.26801501 74.47432703 -149.27234665 72.56892046 C-147.94325372 71.90739441 -146.61532889 71.24351575 -145.28864303 70.57717547 C-143.95263254 69.91173294 -142.6166029 69.24632884 -141.28055587 68.58095965 C-139.78058659 67.83194111 -138.28071212 67.08273267 -136.78092209 66.33335528 C-133.62422214 64.7565515 -130.46691391 63.18097578 -127.30907074 61.60646281 C-122.3151476 59.1164054 -117.32285466 56.62309103 -112.33075729 54.12937579 C-101.77437946 48.85666399 -91.21626756 43.58742945 -80.65799728 38.31850848 C-69.16180396 32.58146485 -57.66594076 26.84376421 -46.17199591 21.10221687 C-41.20643444 18.6219256 -36.23990553 16.14358552 -31.27262202 13.66674492 C-28.20619488 12.13724472 -25.14058578 10.60611074 -22.07520309 9.07451853 C-20.65045195 8.36308284 -19.2253537 7.65234181 -17.79989257 6.94232973 C-15.86303505 5.97748099 -13.92740483 5.01021403 -11.99207321 4.04230914 C-10.36470765 3.23029181 -10.36470765 3.23029181 -8.70446602 2.4018701 C-5.28872602 0.60918419 -4.06211091 0.01325209 0 0 Z " fill="#3AAC61" transform="translate(895.2829972803593,1100.868991523981)"/>
<path d="M0 0 C3.35868324 1.2786696 6.45339122 2.72560674 9.5703125 4.51171875 C10.45267578 5.01445312 11.33503906 5.5171875 12.24414062 6.03515625 C13.19482422 6.58042969 14.14550781 7.12570312 15.125 7.6875 C17.19999698 8.86940976 19.27554045 10.05036045 21.3515625 11.23046875 C22.98206543 12.15738525 22.98206543 12.15738525 24.64550781 13.10302734 C30.24476637 16.26942028 35.87271589 19.38377241 41.5 22.5 C49.81391964 27.10734613 58.10859918 31.74544432 66.375 36.4375 C75.04710139 41.35818674 83.76387865 46.194307 92.5 51 C102.17062401 56.31975785 111.80743764 61.6942692 121.40722656 67.14111328 C132.08336374 73.19315551 142.81848571 79.13844587 153.55175781 85.08837891 C168.91261981 93.60406493 184.26331509 102.13722044 199.58203125 110.72851562 C207.25146244 115.02745908 214.93603144 119.29861743 222.625 123.5625 C230.93702349 128.17292761 239.231271 132.81236978 247.5 137.5 C259.14467263 144.10040388 270.8450369 150.59881964 282.55175781 157.08837891 C301.05910447 167.34839904 319.55125551 177.63491715 338 188 C339.09119141 188.61278809 340.18238281 189.22557617 341.30664062 189.85693359 C344.53895836 191.6733371 347.76976297 193.49239927 351 195.3125 C351.99225586 195.87018066 352.98451172 196.42786133 354.00683594 197.00244141 C354.91208008 197.51339355 355.81732422 198.0243457 356.75 198.55078125 C357.54921875 199.00106689 358.3484375 199.45135254 359.171875 199.9152832 C361 201 361 201 362 202 C362.09597204 203.59422036 362.12187924 205.1927045 362.12025452 206.78981018 C362.12231651 208.3442836 362.12231651 208.3442836 362.12442017 209.93016052 C362.12082489 211.07670609 362.11722961 212.22325165 362.11352539 213.40454102 C362.11367142 214.60437622 362.11381744 215.80421143 362.1139679 217.04040527 C362.11338894 220.33985191 362.10835978 223.63923664 362.10139394 226.9386723 C362.09515973 230.38334297 362.09455655 233.82801438 362.09336853 237.27268982 C362.09025541 243.7998273 362.08204229 250.32694811 362.07201904 256.85407823 C362.0608573 264.28322016 362.0553473 271.71236286 362.05032361 279.14151108 C362.03985966 294.42768372 362.0222606 309.71383972 362 325 C359.77578178 323.89585332 357.552453 322.78997427 355.32958984 321.68310547 C354.70604111 321.37378586 354.08249237 321.06446625 353.44004822 320.74577332 C348.05502262 318.06153227 342.8316133 315.13997412 337.625 312.125 C328.18308763 306.71956914 318.62271077 301.57285594 309 296.5 C298.83813097 291.14109161 288.76950039 285.66602338 278.80078125 279.953125 C270.62443612 275.29410746 262.32277807 270.88960991 254 266.5 C244.75779293 261.62546371 235.56707701 256.69607264 226.5 251.5 C216.63795494 245.84931956 206.6271085 240.50752181 196.57885742 235.19836426 C188.15498547 230.7471529 179.75666578 226.26332411 171.44873047 221.59814453 C165.43934367 218.22702511 159.37857156 214.95532662 153.3125 211.6875 C145.486035 207.46831489 137.72005979 203.16058178 130 198.75 C120.07819595 193.08845462 110.0125512 187.72622065 99.90991211 182.39758301 C90.44709721 177.40341198 81.08513036 172.2738229 71.80078125 166.953125 C63.62443111 162.29410461 55.32273196 157.88970548 47 153.5 C36.7638147 148.10067703 26.61528571 142.59073199 16.57006836 136.84106445 C4.5212444 129.96979971 -7.74969491 123.50284655 -20 117 C-20.02468857 121.5206665 -20.04285449 126.0412939 -20.05493164 130.56201172 C-20.05996552 132.10043013 -20.06679308 133.63884375 -20.07543945 135.17724609 C-20.08754639 137.38640526 -20.09323769 139.59550126 -20.09765625 141.8046875 C-20.10281754 142.49432587 -20.10797882 143.18396423 -20.11329651 143.89450073 C-20.16318164 147.57059655 -20.16318164 147.57059655 -19 151 C-17.45735232 151.93540377 -15.87326052 152.80286721 -14.2734375 153.63671875 C-7.61546873 157.18227474 -1.12233432 160.98291635 5.375 164.8125 C6.6463771 165.5600783 7.91786396 166.30746997 9.18945312 167.0546875 C11.82171108 168.60166005 14.45350313 170.14942069 17.08496094 171.69775391 C22.62137756 174.95451991 28.16356447 178.20143323 33.70562744 181.44857788 C36.72068359 183.21526602 39.73531937 184.98267117 42.75 186.75 C43.95833134 187.45833673 45.16666468 188.16667006 46.375 188.875 C169.62499999 261.12499999 169.62499999 261.12499999 171.43746948 262.18748474 C172.64590148 262.89587416 173.85433654 263.60425835 175.06277466 264.31263733 C178.08212354 266.08256979 181.10141931 267.85259272 184.12060547 269.62280273 C189.57574994 272.82114542 195.03127772 276.01882473 200.48878479 279.21313477 C203.53445116 280.99581038 206.5797943 282.7790376 209.625 284.5625 C210.22535065 284.91407166 210.82570129 285.26564331 211.44424438 285.62786865 C220.21044475 290.76284811 228.95399398 295.93456382 237.6875 301.125 C247.60967236 307.02029086 257.58359142 312.81920477 267.58935547 318.57128906 C275.24937181 322.97861251 282.87163055 327.44529745 290.47314453 331.95263672 C298.64027547 336.79431703 306.83224006 341.59302181 315.02639771 346.38873291 C321.8730036 350.39674052 328.71298175 354.41536236 335.53515625 358.46484375 C336.14558273 358.82713577 336.75600922 359.1894278 337.38493347 359.56269836 C340.28549293 361.28485776 343.18481027 363.00905149 346.08276367 364.7355957 C347.64281128 365.66311646 347.64281128 365.66311646 349.234375 366.609375 C350.13381836 367.14530273 351.03326172 367.68123047 351.95996094 368.23339844 C355.9404144 370.54648559 359.97561099 372.76422833 364 375 C364 404.37 364 433.74 364 464 C359.31156594 462.43718865 355.26277191 460.70997938 350.9609375 458.39453125 C350.29122925 458.03880035 349.621521 457.68306946 348.93151855 457.31655884 C346.74362348 456.15296216 344.55931279 454.98280542 342.375 453.8125 C340.83890827 452.9938394 339.30261003 452.17556619 337.76611328 451.35766602 C333.17407535 448.91132481 328.58666287 446.4564001 324 444 C322.72789333 443.31928222 321.45575965 442.63861489 320.18359375 441.95800781 C315.61502041 439.51334509 311.04748072 437.06676563 306.48193359 434.61645508 C297.66752238 429.88651066 288.83650413 425.18850415 280 420.5 C270.0295425 415.2098388 260.06984219 409.9007084 250.125 404.5625 C239.76938996 399.00467259 229.39036619 393.4925319 219 388 C207.47287319 381.90655627 195.96472596 375.77991612 184.4765625 369.61328125 C175.66366942 364.88490254 166.83463929 360.18758734 158 355.5 C146.8450902 349.58105126 135.70568183 343.63432701 124.578125 337.6640625 C115.73069267 332.92007729 106.86793285 328.20552035 98 323.5 C87.98858802 318.18772446 77.9872737 312.85756294 68 307.5 C64.57111326 305.66313179 61.14201934 303.82665082 57.71289062 301.99023438 C55.07504389 300.57696259 52.43858482 299.16113197 49.80273438 297.74414062 C46.16449146 295.78858251 42.52349404 293.83823346 38.88085938 291.89086914 C37.47821011 291.1398861 36.07649028 290.38716408 34.67578125 289.63256836 C24.61622669 284.20406955 24.61622669 284.20406955 14 280 C14.47308594 280.97195313 14.94617188 281.94390625 15.43359375 282.9453125 C19.00844416 290.37887696 22.37135508 297.82396697 25.375 305.5090332 C33.26445296 325.60762008 43.11866483 334.02460424 62.0625 344.3125 C64.48101204 345.63858158 66.89689907 346.96940564 69.3125 348.30078125 C69.90035782 348.62426544 70.48821564 348.94774963 71.09388733 349.28103638 C75.62813875 351.78102022 80.11272384 354.35312124 84.5625 357 C91.48931283 361.11803779 98.45481362 365.16484872 105.4375 369.1875 C106.54488525 369.82558594 107.65227051 370.46367188 108.79321289 371.12109375 C111.06369079 372.42906691 113.334281 373.73684513 115.60498047 375.04443359 C121.0716998 378.19332054 126.53574887 381.34683264 132 384.5 C134.16665311 385.7500235 136.33331979 387.00002347 138.5 388.25 C142.83333333 390.75 147.16666667 393.25 151.5 395.75 C152.57266113 396.36883057 153.64532227 396.98766113 154.75048828 397.62524414 C156.91557071 398.87435518 159.08060982 400.12354129 161.24560547 401.37280273 C166.68615706 404.51202309 172.12747216 407.64990563 177.5703125 410.78515625 C189.95681153 417.92188881 202.32994572 425.0805115 214.66796875 432.30078125 C218.68701218 434.65246564 222.7120516 436.99336003 226.74266052 439.32513428 C229.39059696 440.85811707 232.03584942 442.39569516 234.68075562 443.93389893 C235.96184734 444.67755106 237.24406996 445.41925891 238.52749634 446.15887451 C252.1877072 454.03387784 252.1877072 454.03387784 256 458 C256.63916016 460.64477539 256.63916016 460.64477539 257 463 C161.81591404 463.23815057 66.64423067 462.4408951 -105 460 C-105.32238671 458.11818654 -105.64227082 456.23594427 -105.96113586 454.35353088 C-106.13954671 453.30540505 -106.31795755 452.25727922 -106.50177479 451.17739201 C-109.8704004 429.69424779 -109.34617792 407.59028991 -109.31567383 385.90649414 C-109.31105966 382.35981504 -109.31791986 378.81348035 -109.33618164 375.2668457 C-109.49161967 344.75002452 -108.02328812 314.54998371 -103.6875 284.3125 C-103.58328735 283.56692841 -103.47907471 282.82135681 -103.3717041 282.05319214 C-97.80379584 242.29241711 -89.22806244 203.25681165 -77 165 C-76.62294922 163.80068848 -76.24589844 162.60137695 -75.85742188 161.36572266 C-66.70724601 132.36307132 -55.42301004 104.23303293 -42.32568359 76.79101562 C-41.08888828 74.18714012 -39.87720599 71.57346931 -38.67578125 68.953125 C-30.4899474 51.18160863 -20.80726334 34.25177033 -10.9375 17.375 C-10.56415527 16.73572571 -10.19081055 16.09645142 -9.80615234 15.43780518 C-8.73718601 13.61031835 -7.66433973 11.7851775 -6.58984375 9.9609375 C-5.96972412 8.90696777 -5.34960449 7.85299805 -4.71069336 6.76708984 C-3.24644015 4.39862318 -1.71621603 2.18953035 0 0 Z " fill="#2944A7" transform="translate(148,370)"/>
<path d="M0 0 C2.18020242 -0.00393214 4.36040063 -0.01182606 6.5405764 -0.0233025 C12.48854821 -0.04329847 18.43504413 -0.00760847 24.38282812 0.03770006 C30.81271593 0.07674294 37.24252752 0.06340144 43.67250061 0.05657959 C54.79849527 0.05032154 65.92404304 0.07967582 77.04991341 0.13072014 C88.7110019 0.18408213 100.37189996 0.21863542 112.03310966 0.22839546 C112.75977315 0.22901412 113.48643664 0.22963278 114.23512023 0.23027018 C117.92589134 0.23331543 121.61666262 0.23602779 125.30743407 0.23861206 C151.40885621 0.25748596 177.51003032 0.31803845 203.61131287 0.40333557 C228.95895576 0.48607389 254.30653063 0.54978782 279.65428162 0.58790588 C280.43642503 0.58908962 281.21856843 0.59027335 282.02441316 0.59149296 C289.87944408 0.60336025 297.73447553 0.61484248 305.58950743 0.62604269 C321.58928746 0.64886497 337.58906307 0.67425624 353.58883667 0.70120239 C354.6921583 0.70305581 354.6921583 0.70305581 355.81776926 0.70494666 C404.88683255 0.78766965 453.95575005 0.9304546 503.02464294 1.08229065 C502.4441185 6.13451799 501.82658757 10.25825289 499.79417419 14.9690094 C499.32825867 16.05721985 498.86234314 17.1454303 498.38230896 18.26661682 C497.87240417 19.42266418 497.36249939 20.57871155 496.83714294 21.76979065 C496.2992011 23.00452897 495.76136145 24.23931181 495.22361755 25.47413635 C473.08185652 75.99647029 473.08185652 75.99647029 461.02464294 94.08229065 C458.38411007 94.37596725 455.97809137 94.47090992 453.33528233 94.43911839 C452.12473024 94.4423493 452.12473024 94.4423493 450.88972256 94.44564548 C448.1560555 94.44926676 445.42293811 94.43132491 442.68933105 94.41372681 C440.72124264 94.41200657 438.75315266 94.41162947 436.78506368 94.41248792 C431.35342474 94.41111388 425.92198437 94.39114489 420.49039853 94.36844003 C414.64067761 94.3473233 408.79094547 94.34358004 402.94119263 94.33818054 C392.79405887 94.32684795 382.64698414 94.30568688 372.49987984 94.27902412 C357.13103036 94.23957082 341.76221641 94.22888954 326.39332309 94.22546055 C320.91675642 94.22415609 315.44018992 94.22220122 309.96362342 94.22033871 C308.58021698 94.21986856 307.19681053 94.2194056 305.81340409 94.2189498 C289.48871155 94.2135081 273.16402633 94.20186467 256.83934021 94.1865387 C255.76762876 94.18554659 255.76762876 94.18554659 254.67426658 94.18453443 C231.53951152 94.16293093 208.40487041 94.11648777 185.27017675 94.06019902 C161.47792412 94.00250568 137.68583759 93.97845892 113.89351555 93.99315288 C110.52794277 93.99519688 107.16236993 93.99681551 103.7967968 93.99815178 C102.80328951 93.99855591 102.80328951 93.99855591 101.78971137 93.9989682 C90.50309536 94.00242682 79.2170301 93.96362742 67.93053722 93.9142819 C57.88045871 93.87300796 47.8307766 93.86832212 37.78064293 93.89198626 C31.98758228 93.90448831 26.19573215 93.90096106 20.40282822 93.85323524 C15.08742785 93.80977528 9.77410541 93.81335173 4.45869141 93.85259574 C2.54723088 93.85868979 0.63562124 93.84824463 -1.27561819 93.81854034 C-14.95134853 93.61925229 -24.20819894 96.71065947 -35.86561652 103.83041126 C-39.2026502 105.81054276 -42.66805586 107.51573858 -46.14891052 109.22583008 C-47.49415982 109.89767141 -48.83914427 110.57004355 -50.1837616 111.2431488 C-51.58025857 111.93883296 -52.97677405 112.63447998 -54.37330627 113.33009338 C-55.90501292 114.0949829 -57.43662611 114.8600596 -58.96815491 115.62530518 C-62.21884625 117.24909216 -65.47014966 118.87164414 -68.72196579 120.49317741 C-73.8675486 123.05911553 -79.0115381 125.62823689 -84.15531921 128.19778442 C-95.05246719 133.64085387 -105.95132804 139.08048897 -116.85035706 144.51979065 C-128.67059584 150.41886969 -140.4905204 156.3185739 -152.30850995 162.22215801 C-157.42013951 164.77548733 -162.53273641 167.32686603 -167.64609313 169.87673461 C-170.8176119 171.45876457 -173.9883012 173.04245129 -177.1587677 174.62658882 C-178.62698173 175.35976035 -180.09554119 176.09224063 -181.5644722 176.82397461 C-183.5704371 177.82334395 -185.57514823 178.82518594 -187.57957458 179.82763672 C-189.26124127 180.6668046 -189.26124127 180.6668046 -190.97688103 181.52292538 C-193.9142259 182.95391399 -193.9142259 182.95391399 -196.12079197 184.65406078 C-199.9511082 186.57049004 -203.45874159 186.51181092 -207.64687443 186.49333382 C-208.52362606 186.5012893 -209.40037769 186.50924478 -210.30369756 186.51744133 C-213.25628293 186.5405114 -216.20849383 186.54219739 -219.16116333 186.54399109 C-221.29358022 186.55603559 -223.42599025 186.56935037 -225.55839199 186.58382976 C-231.42993831 186.61973666 -237.30141067 186.63667368 -243.17304528 186.65037322 C-249.50117544 186.6682377 -255.82921711 186.70306789 -262.1572876 186.73524475 C-276.72230088 186.80534379 -291.28732605 186.84903638 -305.85245607 186.885933 C-310.89219933 186.8987002 -315.93193932 186.91239744 -320.9716785 186.92668295 C-347.77465852 187.00246404 -374.57764415 187.068601 -401.38070774 187.10586739 C-407.58942243 187.11463119 -413.79813692 187.12353381 -420.0068512 187.13258362 C-421.16386866 187.13425271 -421.16386866 187.13425271 -422.34426021 187.13595552 C-447.35121526 187.17241935 -472.35753675 187.26524869 -497.36419426 187.39034819 C-523.07717703 187.5187464 -548.78982519 187.59859456 -574.50313722 187.61429153 C-578.13583959 187.61651281 -581.76854142 187.61924485 -585.40124321 187.62226486 C-586.11617358 187.62283671 -586.83110395 187.62340855 -587.56769888 187.62399772 C-599.0665222 187.63453245 -610.56455103 187.69539587 -622.06308271 187.77465477 C-633.62466369 187.85314567 -645.18498463 187.87500737 -656.74685837 187.8433509 C-663.00944151 187.82777898 -669.26950192 187.83651242 -675.53171921 187.91074753 C-681.26802854 187.9781807 -687.00000189 187.97606275 -692.73638629 187.91913591 C-694.80850152 187.9107276 -696.88090965 187.92758409 -698.95255346 187.97257473 C-714.01798696 188.27968796 -714.01798696 188.27968796 -718.97545414 184.59617028 C-722.5579545 181.07003645 -725.33253103 177.11807475 -727.91949271 172.82443486 C-729.24861828 170.6314179 -730.76064086 168.60406865 -732.31520081 166.56666565 C-733.18656597 165.32570368 -734.05257679 164.08096263 -734.91285706 162.83229065 C-735.6420636 161.78561218 -735.6420636 161.78561218 -736.38600159 160.7177887 C-737.40561139 159.25114423 -738.4225466 157.78263672 -739.43678284 156.31227112 C-740.99398252 154.05529526 -742.56058854 151.80504807 -744.12770081 149.5549469 C-751.87016299 138.38682485 -759.24237234 127.00001196 -766.46217346 115.48780823 C-767.45651196 113.90710199 -768.45858314 112.33122873 -769.4690094 110.76075745 C-769.922276 110.0521759 -770.3755426 109.34359436 -770.84254456 108.61354065 C-771.24070374 107.99672424 -771.63886292 107.37990784 -772.04908752 106.74440002 C-772.97535706 105.08229065 -772.97535706 105.08229065 -773.60035706 102.26979065 C-772.97535706 100.08229065 -772.97535706 100.08229065 -770.91285706 98.45729065 C-769.45879456 97.77666565 -769.45879456 97.77666565 -767.97535706 97.08229065 C-767.03672318 96.56885101 -766.09808929 96.05541138 -765.13101196 95.52641296 C-759.53543544 93.16383507 -753.52038575 93.61829315 -747.54737854 93.60133362 C-746.17100484 93.58687876 -744.79464424 93.5711292 -743.41829872 93.55420303 C-739.63492751 93.51138686 -735.8516236 93.48682813 -732.06808019 93.46517801 C-727.95084236 93.43834671 -723.83378212 93.39440256 -719.7166748 93.3525238 C-712.55220817 93.28189273 -705.38771523 93.22177951 -698.22309875 93.16859436 C-687.96494052 93.09226953 -677.70700322 92.99844678 -667.44903958 92.89964533 C-650.24232849 92.73417041 -633.03552541 92.58249715 -615.82862854 92.4377594 C-598.66161954 92.29323724 -581.49474307 92.13822587 -564.32792342 91.97272158 C-554.41320419 91.87721963 -544.49847321 91.78294104 -534.58374047 91.68885326 C-532.03338082 91.66464717 -529.48302158 91.64039891 -526.93266273 91.61610889 C-491.97885839 91.28375669 -457.02535841 91.01545773 -422.07053589 90.8186735 C-405.41002689 90.72477664 -388.74961269 90.62515742 -372.08929443 90.50151062 C-371.30886178 90.49572471 -370.52842912 90.48993881 -369.72434699 90.48397757 C-361.87493137 90.42559772 -354.02552866 90.36568432 -346.17613974 90.30381949 C-342.27985939 90.27317273 -338.38357565 90.2429802 -334.48728943 90.21308899 C-333.3344529 90.20423875 -333.3344529 90.20423875 -332.15832675 90.19520973 C-319.81099553 90.10147436 -307.46372704 90.04217528 -295.11613569 89.99618383 C-282.64233823 89.94905131 -270.16918007 89.86593169 -257.69585252 89.74752939 C-250.89396841 89.68400621 -244.09302517 89.63777502 -237.29081345 89.63428879 C-231.01340906 89.63074515 -224.73805047 89.58092814 -218.46123493 89.49604011 C-216.19484697 89.47333706 -213.92821705 89.46702217 -211.66174996 89.47954011 C-196.74665359 89.54989176 -186.09776475 87.04253495 -173.22745121 79.39858282 C-169.42477341 77.17601366 -165.50342833 75.18036711 -161.59254456 73.1565094 C-160.01632292 72.32307162 -158.44037518 71.48911502 -156.86500549 70.65406799 C-148.94299831 66.47261897 -140.95265272 62.42341438 -132.97102356 58.35734558 C-128.01262138 55.83112544 -123.05641648 53.30060313 -118.10035706 50.76979065 C-116.64062973 50.02442802 -116.64062973 50.02442802 -115.15141296 49.26400757 C-106.34119529 44.76294056 -97.55181931 40.22282161 -88.76979065 35.66700745 C-81.90198186 32.10670772 -75.02482446 28.56545424 -68.13941956 25.0393219 C-67.27934296 24.59878983 -66.41926636 24.15825775 -65.53312683 23.70437622 C-61.30918179 21.54127244 -57.08445875 19.37970591 -52.85865784 17.2202301 C-51.28816625 16.41646968 -49.71769033 15.61267865 -48.14723206 14.80885315 C-47.47406952 14.4655043 -46.80090698 14.12215546 -46.10734558 13.7684021 C-45.42022491 13.41646286 -44.73310425 13.06452362 -44.02516174 12.70191956 C-42.94115913 12.16275844 -42.94115913 12.16275844 -41.83525747 11.61270517 C-39.64977981 10.44319356 -37.61668802 9.22960202 -35.53603321 7.89576679 C-23.6994814 0.59195637 -13.67306272 -0.18516946 0 0 Z " fill="#39AC60" transform="translate(908.9753570556641,1006.9177093505859)"/>
<path d="M0 0 C7.0246688 0.06387943 14.04885273 0.05590585 21.0737406 0.04636059 C34.03206819 0.03068808 46.98965489 0.07032702 59.94776711 0.14256947 C72.75973245 0.21381248 85.57138851 0.25980849 98.3835505 0.27280324 C99.18307171 0.27362811 99.98259292 0.27445299 100.80634204 0.27530286 C104.8674548 0.27936341 108.92856782 0.28297981 112.98968114 0.28642537 C141.68173356 0.31156508 170.37338393 0.39222968 199.0652102 0.50605672 C226.92195944 0.61644248 254.77859826 0.70136083 282.6355227 0.75215047 C283.92573965 0.75451794 283.92573965 0.75451794 285.2420216 0.75693324 C293.88071583 0.7727568 302.51941091 0.78806637 311.15810672 0.80299955 C328.75282863 0.83342613 346.34754338 0.86728115 363.94225488 0.90321248 C364.75105793 0.90485996 365.55986099 0.90650744 366.39317324 0.90820484 C420.3141316 1.01843102 474.2348612 1.20880303 528.15554223 1.41133015 C527.51697693 3.98237536 526.87735194 6.55314913 526.23711572 9.12377827 C525.96734776 10.21064089 525.96734776 10.21064089 525.69212994 11.31946032 C524.48763085 16.15110764 523.18839836 20.92445026 521.71022973 25.6808614 C521.39275025 26.70383824 521.39275025 26.70383824 521.06885705 27.74748128 C520.39529599 29.90816045 519.7137694 32.06618976 519.03054223 34.22383015 C518.79620477 34.9690392 518.5618673 35.71424824 518.3204287 36.48203938 C513.75200611 50.98089287 508.6368668 65.23189053 503.15554223 79.41133015 C502.82554223 78.42133015 502.49554223 77.43133015 502.15554223 76.41133015 C452.59781456 76.1982616 403.04006304 76.00721092 353.48191247 75.93516438 C352.74663226 75.93408909 352.01135204 75.9330138 351.25379061 75.93190593 C335.26824343 75.90866251 319.28269376 75.88943534 303.29713686 75.87433649 C295.4560739 75.86690596 287.61501199 75.85858937 279.77395043 75.84980672 C278.99373459 75.8489479 278.21351874 75.84808908 277.40965999 75.84720423 C252.19055674 75.81903005 226.97207029 75.73252222 201.75323704 75.61526153 C175.80412141 75.49491702 149.85552142 75.43442467 123.90611418 75.44759643 C120.22800933 75.44943594 116.54990455 75.45060213 112.87179932 75.45135777 C112.14800513 75.45152731 111.42421093 75.45169685 110.67848358 75.45187152 C99.09918119 75.45286134 87.52101532 75.39208857 75.94205798 75.30731089 C64.25727311 75.22310946 52.57395104 75.20756786 40.88895005 75.25447515 C34.57456459 75.27789313 28.26375713 75.27355159 21.94982514 75.18825619 C-7.32286321 74.81527668 -29.16046941 77.05321378 -54.07422593 93.07331484 C-59.93456323 96.79263087 -66.17415819 99.82187987 -72.37641174 102.92208979 C-75.77824516 104.63202486 -79.15792975 106.3849377 -82.53977027 108.1339864 C-91.09761388 112.54292477 -99.65825921 116.9464107 -108.21945777 121.34883015 C-109.30559363 121.90736684 -109.30559363 121.90736684 -110.41367164 122.47718709 C-117.78045563 126.26543851 -125.14751859 130.053147 -132.51489844 133.84023946 C-135.49520263 135.37227509 -138.47540811 136.90450267 -141.45560279 138.4367513 C-143.4554042 139.46484313 -145.45534548 140.49266242 -147.45529761 141.52046101 C-148.05773418 141.83228102 -148.66017074 142.14410102 -149.28086295 142.46537011 C-150.64690791 143.16362781 -152.01956094 143.84916657 -153.39964881 144.51924126 C-158.05413857 146.81832069 -162.31700354 149.37592375 -166.60071387 152.31111043 C-190.64200699 167.8232363 -215.44289089 166.74312102 -243.26009503 166.57373421 C-249.40825185 166.55225861 -255.55535433 166.60663444 -261.70324698 166.6590231 C-274.17080322 166.76290295 -286.63752977 166.79599052 -299.10547462 166.78639119 C-311.39085742 166.77731158 -323.6754381 166.80230091 -335.96063819 166.87171834 C-336.72749982 166.87604779 -337.49436146 166.88037725 -338.28446132 166.8848379 C-342.17081706 166.90702496 -346.057168 166.92995219 -349.94351699 166.95328682 C-357.77032788 167.00018186 -365.5971609 167.04297204 -373.42400184 167.08451741 C-374.201587 167.08865962 -374.97917216 167.09280183 -375.78032051 167.09706957 C-387.63049725 167.1595339 -399.48065597 167.20349859 -411.33095374 167.23496907 C-412.11336454 167.23705248 -412.89577535 167.23913589 -413.70189557 167.24128244 C-416.85342471 167.24962016 -420.00495413 167.25784766 -423.15648378 167.26599328 C-459.302954 167.35944966 -495.44568122 167.60339457 -531.59055152 167.95820515 C-532.85156181 167.97051372 -534.11257209 167.98282228 -535.41179481 167.99550383 C-546.53559622 168.10413671 -557.65938343 168.21414708 -568.78314414 168.32687466 C-586.90899578 168.51015333 -605.03497178 168.67119388 -623.16111961 168.82207196 C-633.40694658 168.90755146 -643.65271684 168.99603907 -653.89841285 169.09611409 C-654.86567794 169.1055286 -655.83294303 169.1149431 -656.82951918 169.1246429 C-660.66476431 169.16200785 -664.50000935 169.19937394 -668.33524957 169.23724001 C-679.48807164 169.34665325 -690.64053475 169.43189634 -701.79381319 169.47645908 C-708.83462368 169.50488068 -715.87522292 169.5484353 -722.91587337 169.6037467 C-727.71271361 169.64035304 -732.5090052 169.65694519 -737.30597749 169.65687554 C-740.20595677 169.6620216 -743.10548407 169.68770108 -746.00528469 169.7192816 C-747.94183829 169.73440453 -749.8785361 169.72511396 -751.81512084 169.71471684 C-759.6704552 169.82799657 -766.14972647 171.09865998 -772.84445777 175.41133015 C-773.50445777 176.40133015 -774.16445777 177.39133015 -774.84445777 178.41133015 C-788.73685628 153.73516743 -801.92637425 128.83407914 -813.21945777 102.84883015 C-813.50098701 102.20318105 -813.78251624 101.55753194 -814.07257667 100.8923177 C-818.80145987 90.00233527 -818.80145987 90.00233527 -819.84445777 84.41133015 C-818.59223577 84.41453027 -817.34001378 84.41773038 -816.04984566 84.42102747 C-760.80796105 84.56127697 -705.56605903 84.68395192 -650.32399573 84.71812337 C-649.48638608 84.71864643 -648.64877642 84.71916949 -647.78578465 84.7197084 C-629.5780364 84.73097439 -611.370288 84.73912228 -593.16253696 84.7440625 C-584.23221022 84.74650448 -575.30188377 84.74963478 -566.37155738 84.75312703 C-565.03861377 84.75363071 -565.03861377 84.75363071 -563.678742 84.75414456 C-534.92572342 84.76533154 -506.17301379 84.82188555 -477.42011217 84.9022099 C-447.84886344 84.98457898 -418.27790484 85.02069221 -388.70654055 84.99940391 C-384.52054589 84.9964118 -380.33455107 84.99394316 -376.1485559 84.99179356 C-375.32477033 84.99135434 -374.50098476 84.99091511 -373.65223599 84.99046257 C-360.44292876 84.98476137 -347.2342025 85.02717437 -334.02505257 85.08802129 C-320.71402522 85.14829467 -307.40373392 85.15683036 -294.09263236 85.11417965 C-286.89261831 85.09250463 -279.69433937 85.09283148 -272.4945375 85.15758221 C-232.71039121 86.10179357 -232.71039121 86.10179357 -196.75683167 71.22092741 C-191.43519533 67.91434012 -185.69238881 65.50334238 -179.96945777 62.97383015 C-178.66802356 62.37683833 -177.36769268 61.77742045 -176.06955543 61.17329304 C-174.55434302 60.47321126 -174.55434302 60.47321126 -173.00852027 59.7589864 C-164.75030476 55.92164006 -156.56438489 51.93871892 -148.37674537 47.953597 C-138.10758479 42.95806066 -127.77941192 38.10688688 -117.40744605 33.32758992 C-107.45082294 28.725689 -97.57693816 23.96356887 -87.72727027 19.13789265 C-85.94697246 18.26931124 -84.16605226 17.40090248 -82.36281254 16.58101194 C-78.46082496 14.78722876 -74.89194264 12.81881399 -71.31201186 10.44398015 C-49.65395034 -2.81291204 -24.48512118 -0.23170456 0 0 Z " fill="#FEFEFE" transform="translate(909.8444577706978,931.5886698458344)"/>
<path d="M0 0 C1.14878168 0.00394052 1.14878168 0.00394052 2.32077107 0.00796065 C3.13065591 0.0068068 3.94054075 0.00565296 4.77496755 0.00446415 C7.52398156 0.00179003 10.2729385 0.00632613 13.02194962 0.01075396 C14.99859219 0.01031842 16.9752347 0.00944383 18.95187691 0.00816479 C24.41097871 0.00591644 29.8700611 0.00994573 35.32916042 0.01494285 C41.2058167 0.01924232 47.08247178 0.01780129 52.95912918 0.01704058 C63.14994873 0.01651502 73.34076189 0.01966512 83.53157982 0.02527842 C94.22340731 0.03116387 104.91523206 0.03504306 115.60706124 0.03613123 C116.2710526 0.03619997 116.93504397 0.03626871 117.61915629 0.03633953 C120.99102884 0.03667785 124.3629014 0.03697924 127.73477396 0.03726641 C151.63762473 0.03936861 175.54047218 0.04611095 199.44332108 0.05556902 C222.66923236 0.06474866 245.89514273 0.07183462 269.12105545 0.07607684 C270.19433734 0.07627412 270.19433734 0.07627412 271.28930168 0.0764754 C278.47465062 0.07779388 285.65999956 0.0790697 292.84534851 0.08031426 C307.48363251 0.08285069 322.12191644 0.08567194 336.76020035 0.08866534 C337.43329226 0.08880263 338.10638416 0.08893992 338.79987279 0.08908137 C383.77225083 0.098287 428.74462697 0.11415353 473.71700272 0.13100848 C461.65564776 31.11342862 437.42085638 61.3829432 416.71700272 87.13100848 C416.38700272 86.47100848 416.05700272 85.81100848 415.71700272 85.13100848 C365.28728155 84.80979669 314.85766473 84.56348564 264.42711982 84.41609386 C258.45856024 84.39858626 252.49000266 84.38046553 246.52144608 84.36196551 C245.33333179 84.35829316 244.14521751 84.35462082 242.92109976 84.35083719 C223.74261016 84.29009989 204.56471465 84.17981786 185.3865762 84.05086933 C165.67339728 83.91943963 145.96052713 83.84207905 126.24692813 83.81376955 C114.10529853 83.79466379 101.96534868 83.73457098 89.82423685 83.62017794 C81.47185224 83.5455435 73.12032191 83.52394684 64.76762893 83.54198919 C59.96478385 83.55086139 55.16484952 83.53834952 50.36253724 83.46213183 C26.56088306 83.10300614 8.85553366 85.96415289 -12.16951755 97.46657762 C-16.62574514 99.84882621 -21.22129486 101.83844734 -25.87284103 103.80288348 C-27.43282025 104.48218898 -28.99216848 105.16294742 -30.55057541 105.84585223 C-31.31055832 106.17698016 -32.07054123 106.50810809 -32.85355392 106.84927019 C-47.37457325 113.17890688 -61.84790805 119.60796788 -76.28299728 126.13100848 C-91.48128655 132.99892985 -106.72563409 139.75433746 -122.01541916 146.41616473 C-123.09723916 146.89053207 -123.09723916 146.89053207 -124.20091411 147.3744826 C-125.79616605 148.06875435 -127.39536957 148.75405862 -128.99942216 149.42774794 C-134.00127712 151.56156697 -138.74699547 153.91450603 -143.48047748 156.59387049 C-165.67035672 168.61644798 -186.18695521 169.09486506 -211.02443579 168.75592718 C-216.68377122 168.69456241 -222.34293495 168.71599054 -228.00251022 168.72655901 C-237.77100671 168.73384395 -247.53817809 168.69051626 -257.30634132 168.61122927 C-271.42862606 168.49667602 -285.55028049 168.46091098 -299.67297939 168.44339739 C-322.59458572 168.41287649 -345.51535808 168.32015896 -368.43656173 168.18716082 C-390.68131664 168.05823823 -412.92588221 167.95923593 -435.17093673 167.90005144 C-435.85860731 167.89821008 -436.54627789 167.89636871 -437.25478696 167.89447155 C-444.16169153 167.87600966 -451.06859755 167.85814865 -457.97550482 167.84072752 C-515.74514568 167.69496037 -573.51405356 167.44829065 -631.28299728 167.13100848 C-631.61299728 167.79100848 -631.94299728 168.45100848 -632.28299728 169.13100848 C-654.9548674 148.17253205 -654.9548674 148.17253205 -663.67362228 137.95913348 C-665.30886162 136.10162859 -667.01781521 134.36494838 -668.78299728 132.63100848 C-672.49513087 128.96804222 -675.8898061 125.08866247 -679.28299728 121.13100848 C-680.19015267 120.08769467 -681.09773809 119.04475469 -682.00565353 118.00210223 C-687.31780784 111.87985526 -692.51536988 105.68526156 -697.53299728 99.31850848 C-698.0109172 98.71377703 -698.48883712 98.10904559 -698.98123947 97.48598894 C-702.28299728 93.25782985 -702.28299728 93.25782985 -702.28299728 92.13100848 C-700.65744148 92.13580865 -700.65744148 92.13580865 -698.99904618 92.14070579 C-651.18566828 92.2809716 -603.37228883 92.40363648 -555.55870834 92.43780169 C-554.47104819 92.43858628 -554.47104819 92.43858628 -553.3614151 92.43938672 C-537.59878701 92.45065301 -521.83615875 92.45880074 -506.07352744 92.46374082 C-498.34232508 92.46618277 -490.61112306 92.46931307 -482.87992111 92.47280535 C-482.11061793 92.47314114 -481.34131475 92.47347692 -480.54869936 92.47382288 C-455.66182384 92.48500756 -430.77530544 92.54155033 -405.88856511 92.62188822 C-380.29102221 92.7042791 -354.69381456 92.74036454 -329.09613811 92.71908224 C-325.47168579 92.71609017 -321.84723329 92.71362151 -318.22278038 92.71147189 C-317.509512 92.71103266 -316.79624362 92.71059343 -316.06136105 92.71014089 C-304.62946128 92.70444223 -293.19823341 92.74683217 -281.76651551 92.80769961 C-270.24325969 92.86801022 -258.72115158 92.87536333 -247.19775241 92.83385797 C-240.96590608 92.81291874 -234.73624117 92.81394324 -228.5046331 92.87726054 C-192.74258926 93.35938672 -192.74258926 93.35938672 -160.84124783 78.84156212 C-157.15467847 76.37656718 -153.26801501 74.47432703 -149.27234665 72.56892046 C-147.94325372 71.90739441 -146.61532889 71.24351575 -145.28864303 70.57717547 C-143.95263254 69.91173294 -142.6166029 69.24632884 -141.28055587 68.58095965 C-139.78058659 67.83194111 -138.28071212 67.08273267 -136.78092209 66.33335528 C-133.62422214 64.7565515 -130.46691391 63.18097578 -127.30907074 61.60646281 C-122.3151476 59.1164054 -117.32285466 56.62309103 -112.33075729 54.12937579 C-101.77437946 48.85666399 -91.21626756 43.58742945 -80.65799728 38.31850848 C-69.16180396 32.58146485 -57.66594076 26.84376421 -46.17199591 21.10221687 C-41.20643444 18.6219256 -36.23990553 16.14358552 -31.27262202 13.66674492 C-28.20619488 12.13724472 -25.14058578 10.60611074 -22.07520309 9.07451853 C-20.65045195 8.36308284 -19.2253537 7.65234181 -17.79989257 6.94232973 C-15.86303505 5.97748099 -13.92740483 5.01021403 -11.99207321 4.04230914 C-10.36470765 3.23029181 -10.36470765 3.23029181 -8.70446602 2.4018701 C-5.28872602 0.60918419 -4.06211091 0.01325209 0 0 Z " fill="#FDFEFE" transform="translate(895.2829972803593,1100.868991523981)"/>
<path d="M0 0 C1.31205188 -0.00512655 2.62410375 -0.0102531 3.97591478 -0.015535 C7.58857035 -0.02885482 11.20014431 -0.00508826 14.81266224 0.02513337 C18.71911513 0.05117822 22.62551285 0.0422665 26.5320282 0.03771973 C33.2905833 0.03458201 40.04878938 0.05331835 46.8072567 0.08714676 C56.57866 0.13602394 66.34989549 0.15154714 76.12140778 0.15907471 C91.97705558 0.17218853 107.83251759 0.2120693 123.68806458 0.26889038 C139.08519057 0.32401106 154.48226601 0.3664588 169.87947083 0.39193726 C171.30441327 0.39430177 171.30441327 0.39430177 172.75814243 0.39671405 C177.52408387 0.40454459 182.29002566 0.41212676 187.05596769 0.41958547 C226.55968406 0.48172988 266.06319308 0.58735978 305.56672668 0.7215271 C304.62171847 1.84283077 303.67400759 2.96185704 302.72517395 4.07992554 C302.19771072 4.70332825 301.6702475 5.32673096 301.12680054 5.96902466 C299.10545921 8.23968999 296.89331082 10.09570834 294.50422668 11.9715271 C290.95800625 14.79704863 287.4563626 17.65203551 284.02156067 20.61239624 C275.80935968 27.6773511 267.22807188 34.22035705 258.56672668 40.7215271 C257.83212219 41.27711304 257.0975177 41.83269897 256.34065247 42.40512085 C223.15911295 67.47400916 187.55651627 88.80517629 150.56672668 107.7215271 C149.84710754 108.0922937 149.1274884 108.4630603 148.38606262 108.84506226 C72.53377266 147.89162511 -11.12673684 171.1157045 -147.19499207 182.9246521 C-148.01674234 182.92747948 -148.83849262 182.93030685 -149.68514442 182.93321991 C-154.05260645 182.94809337 -158.42003659 182.95739171 -162.78752136 182.96176147 C-166.30553319 182.96609984 -169.82329336 182.97982666 -173.3412323 183.0027771 C-204.13255413 183.19931408 -234.67291379 181.81000406 -265.18327332 177.4090271 C-266.29589035 177.25320663 -266.29589035 177.25320663 -267.4309845 177.09423828 C-344.45268382 166.29753929 -419.76890625 143.57397922 -489.02799988 107.95736694 C-490.85887036 107.01665781 -492.69195765 106.08026181 -494.52604675 105.14584351 C-520.97223196 91.66679579 -520.97223196 91.66679579 -531.43327332 84.7215271 C-530.44327332 84.2265271 -530.44327332 84.2265271 -529.43327332 83.7215271 C-528.75325256 84.18575577 -528.07323181 84.64998444 -527.37260437 85.12828064 C-523.33500447 87.31683703 -519.9291951 87.18880345 -515.40397644 87.21347046 C-514.50401947 87.22990915 -513.6040625 87.24634785 -512.67683411 87.26328468 C-509.68943162 87.31421028 -506.70220646 87.34416752 -503.71452332 87.37387085 C-501.5883257 87.40533158 -499.4621454 87.43798229 -497.33598328 87.47175598 C-491.78491503 87.55613586 -486.2337819 87.62249416 -480.68241882 87.68401337 C-476.62463504 87.73086341 -472.56703024 87.78767614 -468.50938702 87.84526253 C-450.14107537 88.1041019 -431.77336826 88.2827374 -413.40324402 88.32699585 C-408.84343506 88.34080682 -404.28363632 88.35639746 -399.72384048 88.37402868 C-398.37337659 88.37914356 -397.02291154 88.38396048 -395.67244554 88.38848352 C-375.67966914 88.45688278 -355.72041521 88.88510672 -335.73986244 89.58727551 C-320.44944037 90.1215223 -305.15855202 90.50580502 -289.8618679 90.80980396 C-280.41750477 91.00333554 -270.98669362 91.26779904 -261.5509491 91.72106934 C-204.00389115 94.43401149 -164.32579806 82.44504353 -114.89835101 52.94964862 C-106.92120395 48.1997126 -98.71865319 43.90528112 -90.43327332 39.7215271 C-89.43123839 39.21253876 -89.43123839 39.21253876 -88.40896034 38.69326782 C-84.460802 36.68945261 -80.50283574 34.70611563 -76.53768921 32.73615265 C-74.44020374 31.69401574 -72.34413617 30.64906942 -70.24833679 29.60354614 C-65.81113941 27.39054664 -61.37233525 25.18078358 -56.93327332 22.9715271 C-51.74817931 20.39089824 -46.56380427 17.80884389 -41.38110352 15.22341156 C-39.33987884 14.20598186 -37.29744558 13.19101016 -35.25492859 12.17617798 C-33.98293649 11.54200088 -32.71100163 10.90770897 -31.43913269 10.27328491 C-29.75460959 9.43506716 -28.06997627 8.59705626 -26.38270456 7.7643851 C-24.34252231 6.70613795 -24.34252231 6.70613795 -22.13790387 5.24815857 C-14.64451408 0.62823827 -8.69130735 -0.12562191 0 0 Z " fill="#FEFEFE" transform="translate(919.4332733154297,1279.2784729003906)"/>
<path d="M0 0 C3.51351021 1.35053136 6.84402307 2.88221076 10.18359375 4.6171875 C11.18197266 5.13539063 12.18035156 5.65359375 13.20898438 6.1875 C14.27439453 6.744375 15.33980469 7.30125 16.4375 7.875 C17.55060547 8.45507812 18.66371094 9.03515625 19.81054688 9.6328125 C27.8211662 13.82256223 35.76645592 18.12147944 43.68725586 22.47802734 C50.57356599 26.25353329 57.52270885 29.89577966 64.5 33.5 C73.2972612 38.04435211 82.01591457 42.70831875 90.69140625 47.48046875 C97.57648401 51.25487829 104.52414195 54.89650223 111.5 58.5 C120.34354192 63.06846157 129.10972056 67.75539832 137.83203125 72.55078125 C144.34385991 76.12148095 150.9063409 79.58303856 157.5 83 C165.7573971 87.28120345 173.94515121 91.67114398 182.09765625 96.1484375 C190.35873084 100.67457555 198.67590636 105.09131292 207 109.5 C216.96558617 114.7792955 226.90694442 120.0958673 236.79418945 125.52099609 C242.00290764 128.37553306 247.22664845 131.20003598 252.46484375 134 C253.10545746 134.34247772 253.74607117 134.68495544 254.40609741 135.03781128 C257.56986192 136.72838958 260.73490708 138.41652717 263.90136719 140.10205078 C265.0412207 140.71032715 266.18107422 141.31860352 267.35546875 141.9453125 C268.37278076 142.48687988 269.39009277 143.02844727 270.43823242 143.58642578 C273 145 273 145 276 147 C276.36914349 149.08894539 276.36914349 149.08894539 276.36076355 151.72024536 C276.36694954 153.21367462 276.36694954 153.21367462 276.3732605 154.73727417 C276.36247467 155.83347076 276.35168884 156.92966736 276.34057617 158.05908203 C276.34101425 159.21029541 276.34145233 160.36150879 276.34190369 161.54760742 C276.33980705 165.36784596 276.3164342 169.18765026 276.29296875 173.0078125 C276.28737592 175.65054077 276.28310435 178.29327215 276.28010559 180.93600464 C276.27077235 187.1904732 276.24614145 193.44478489 276.21605712 199.6991843 C276.18255274 206.81878287 276.16603711 213.93838883 276.15097082 221.05804658 C276.11959289 235.7054454 276.06680767 250.3527205 276 265 C272.56076054 263.64734028 269.32075612 262.17964757 266.0703125 260.41796875 C264.64851685 259.64864014 264.64851685 259.64864014 263.19799805 258.86376953 C261.67686401 258.03401611 261.67686401 258.03401611 260.125 257.1875 C259.05999268 256.6085498 257.99498535 256.02959961 256.89770508 255.43310547 C248.84084055 251.03866833 240.83895235 246.55210308 232.85986328 242.01831055 C225.43194222 237.79924635 217.97213983 233.6401911 210.5 229.5 C201.20829916 224.34984434 191.94433614 219.15419061 182.703125 213.9140625 C175.32439873 209.73550204 167.91655566 205.61098674 160.5 201.5 C152.14591341 196.86934114 143.80885439 192.21134814 135.5 187.5 C126.09292351 182.16680908 116.64850679 176.90322888 107.19189453 171.65844727 C96.47527059 165.71367618 85.78199034 159.72776111 75.09277344 153.73388672 C69.89629255 150.8206086 64.69805304 147.91047173 59.5 145 C57.41665834 143.8333482 55.33332501 142.66668154 53.25 141.5 C52.21875 140.9225 51.1875 140.345 50.125 139.75 C38.66666667 133.33333333 27.20833333 126.91666667 15.75 120.5 C14.71842773 119.92233887 13.68685547 119.34467773 12.62402344 118.74951172 C10.54387868 117.58459164 8.46380038 116.41955286 6.38378906 115.25439453 C0.06413856 111.71455898 -6.25804594 108.17930192 -12.58203125 104.6472168 C-15.70833072 102.89831052 -18.83093592 101.14295011 -21.953125 99.38671875 C-25.92770932 97.15245098 -29.91745187 94.94982093 -33.921875 92.76953125 C-43.21603901 87.66097734 -51.00105691 83.07275353 -58 75 C-58.66 74.67 -59.32 74.34 -60 74 C-59.39279578 70.78852484 -58.33984842 68.81187848 -56.33984375 66.2421875 C-55.7974707 65.53916504 -55.25509766 64.83614258 -54.69628906 64.11181641 C-54.11588867 63.37366699 -53.53548828 62.63551758 -52.9375 61.875 C-52.04949707 60.7310376 -52.04949707 60.7310376 -51.14355469 59.56396484 C-49.43660516 57.36991476 -47.72055127 55.1833927 -46 53 C-44.84951172 51.53820312 -44.84951172 51.53820312 -43.67578125 50.046875 C-41.79832634 47.68577552 -39.90370416 45.33996969 -38 43 C-37.319375 42.15695312 -36.63875 41.31390625 -35.9375 40.4453125 C-24.57094271 26.44009012 -12.83203682 12.69230502 0 0 Z " fill="#2944A7" transform="translate(234,260)"/>
<path d="M0 0 C2.3283225 0.79468239 4.44803926 1.76790965 6.64672852 2.87304688 C7.96870239 3.53494019 7.96870239 3.53494019 9.31738281 4.21020508 C10.26009033 4.68804443 11.20279785 5.16588379 12.17407227 5.65820312 C13.15996338 6.15473389 14.14585449 6.65126465 15.16162109 7.1628418 C22.80276734 11.02489279 30.38623511 14.98983369 37.95141602 18.99804688 C44.06862485 22.23486348 50.21555921 25.41401894 56.36157227 28.59570312 C67.68876487 34.46175467 79.00324207 40.35164157 90.30981445 46.25732422 C94.08339039 48.22829094 97.85736041 50.19850161 101.6315918 52.16821289 C103.52071782 53.15413183 105.4097172 54.14029348 107.29858398 55.12670898 C112.55452857 57.87017671 117.81504622 60.60455761 123.08032227 63.33007812 C124.80822998 64.22545288 124.80822998 64.22545288 126.57104492 65.13891602 C128.81468752 66.30115175 131.05912997 67.46184494 133.30444336 68.62084961 C134.31071777 69.14235596 135.31699219 69.6638623 136.35375977 70.20117188 C137.24949707 70.66418701 138.14523437 71.12720215 139.06811523 71.60424805 C141.11157227 72.72070312 141.11157227 72.72070312 142.11157227 73.72070312 C142.2078182 75.44162965 142.23344825 77.16653695 142.23182678 78.89015198 C142.23388878 80.57083771 142.23388878 80.57083771 142.23599243 82.28547668 C142.23239716 83.52552963 142.22880188 84.76558258 142.22509766 86.04321289 C142.22524368 87.3405838 142.22538971 88.63795471 142.22554016 89.97463989 C142.22582813 93.54266242 142.21993159 97.11065161 142.2129662 100.67866635 C142.20673248 104.40360932 142.20612885 108.12855298 142.2049408 111.85350037 C142.20182754 118.91187675 142.19361422 125.97023772 142.18359131 133.02860731 C142.17243 141.06233284 142.16691968 149.09605908 142.16189587 157.12979043 C142.1514316 173.66010369 142.13383226 190.19040145 142.11157227 206.72070312 C139.56956474 205.45421038 137.02805528 204.18673456 134.48681641 202.91870117 C133.77399757 202.56368279 133.06117874 202.2086644 132.32675934 201.84288788 C126.33805053 198.8530942 120.42547574 195.73832745 114.54907227 192.53320312 C113.53006836 191.97987305 112.51106445 191.42654297 111.46118164 190.85644531 C104.63453804 187.13569292 97.86410204 183.32388906 91.11157227 179.47070312 C81.1894322 173.80971129 71.12414713 168.44693625 61.02148438 163.11828613 C51.55866948 158.12411511 42.19670263 152.99452602 32.91235352 147.67382812 C24.73600839 143.01481059 16.43435034 138.61031303 8.11157227 134.22070312 C-2.05002654 128.86126011 -12.11890454 123.38673957 -22.08764648 117.67382812 C-30.94282946 112.62799749 -39.94790755 107.8795743 -48.96258545 103.1272583 C-58.84123474 97.91644258 -68.60839365 92.5477397 -78.30273438 86.99926758 C-85.3741544 82.96670836 -92.53958235 79.22318576 -99.88842773 75.72070312 C-90.52165901 66.26672054 -80.79214695 57.43043934 -70.23608398 49.32226562 C-67.14337384 46.94217369 -64.16892162 44.44276257 -61.20092773 41.90820312 C-46.86946331 29.8925515 -31.29905071 19.29078896 -15.88842773 8.72070312 C-15.17122559 8.22538086 -14.45402344 7.73005859 -13.71508789 7.21972656 C-11.78262831 5.89227866 -9.83891679 4.5839644 -7.88842773 3.28320312 C-6.81592773 2.56261719 -5.74342773 1.84203125 -4.63842773 1.09960938 C-1.88842773 -0.27929688 -1.88842773 -0.27929688 0 0 Z " fill="#2944A7" transform="translate(369.888427734375,149.279296875)"/>
<path d="M0 0 C1.8832241 0.00141213 3.76645095 0.00061527 5.64967346 -0.00221252 C10.73800602 -0.00364164 15.82574407 0.02566631 20.913939 0.06065726 C26.24035499 0.09200509 31.56678602 0.09485814 36.89328003 0.1007843 C46.96892052 0.116298 57.04428836 0.15729302 67.11980903 0.20753175 C78.59499564 0.26350222 90.07019556 0.29093109 101.54548478 0.31600893 C125.14098841 0.36821102 148.73625038 0.4561052 172.33154297 0.56762695 C169.21979999 3.88551995 165.541447 5.84942182 161.58154297 8.00512695 C160.7893335 8.43978271 159.99712402 8.87443848 159.1809082 9.32226562 C105.29582887 38.73165099 48.93195247 62.38797758 -10.66845703 77.56762695 C-11.7407959 77.84316406 -12.81313477 78.11870117 -13.91796875 78.40258789 C-81.8214234 95.72361699 -149.87656414 100.27616593 -219.66845703 99.56762695 C-217.33876464 97.14510287 -215.33542516 95.7464323 -212.27783203 94.31762695 C-211.36066406 93.88385742 -210.44349609 93.45008789 -209.49853516 93.00317383 C-208.48210938 92.52944336 -207.46568359 92.05571289 -206.41845703 91.56762695 C-204.15216634 90.49611713 -201.88659027 89.42309503 -199.62158203 88.34887695 C-199.00549072 88.05734741 -198.38939941 87.76581787 -197.75463867 87.4654541 C-190.04317021 83.81023161 -182.37975488 80.05636057 -174.7121582 76.3102417 C-162.17070391 70.18365882 -149.6181806 64.08283582 -137.02685547 58.05932617 C-128.14080592 53.80442815 -119.27870249 49.50091357 -110.41845703 45.19262695 C-99.67574454 39.96905588 -88.9284401 34.75554306 -78.16845703 29.56762695 C-67.87582415 24.60369599 -57.5899001 19.62611098 -47.31005859 14.63574219 C-45.78004543 13.89302825 -44.24993767 13.15050916 -42.71972656 12.40820312 C-40.57342651 11.36691707 -38.42752616 10.32481172 -36.28173828 9.2824707 C-35.65991165 8.98090561 -35.03808502 8.67934052 -34.39741516 8.36863708 C-33.48611092 7.92560997 -33.48611092 7.92560997 -32.55639648 7.47363281 C-31.66328294 7.0541388 -31.66328294 7.0541388 -30.75212669 6.62617016 C-28.65354954 5.60926545 -28.65354954 5.60926545 -26.75758839 4.3076992 C-18.3810375 -0.81305302 -9.458148 -0.09957205 0 0 Z " fill="#3AAC60" transform="translate(938.66845703125,1361.432373046875)"/>
<path d="M0 0 C-0.33 0.99 -0.66 1.98 -1 3 C1.97 3.495 1.97 3.495 5 4 C5 4.33 5 4.66 5 5 C0.05 5 -4.9 5 -10 5 C-6.95224467 1.95224467 -4.42002798 0 0 0 Z " fill="#59B97A" transform="translate(729,1456)"/>
<path d="M0 0 C0.66 0.33 1.32 0.66 2 1 C0.84414715 4.91211733 -0.35534962 7.8745041 -3 11 C-2.53199289 6.94393835 -2.12046792 3.53411321 0 0 Z " fill="#86CC9E" transform="translate(1390,1056)"/>
</svg>
